<?xml version="1.0" encoding="iso-8859-1"?>
<!-- Generator: Adobe Illustrator 16.0.0, SVG Export Plug-In . SVG Version: 6.00 Build 0)  -->
<!DOCTYPE svg PUBLIC "-//W3C//DTD SVG 1.1//EN" "http://www.w3.org/Graphics/SVG/1.1/DTD/svg11.dtd">
<svg version="1.1" id="Capa_1" xmlns="http://www.w3.org/2000/svg" xmlns:xlink="http://www.w3.org/1999/xlink" x="0px" y="0px"
	 width="464.583px" height="464.583px" viewBox="0 0 464.583 464.583" style="enable-background:new 0 0 464.583 464.583;"
	 xml:space="preserve">
<g>
	<g>
		<path d="M0,408.925h136.154v-54.638c-8.219,5.578-18.142,8.853-28.825,8.853c-28.373,0-51.365-22.991-51.365-51.363
			c0-26.021,19.358-47.464,44.458-50.843c-3.206-20.386-11.896-39.318-22.636-57.085c-2.629-4.338,4.164-8.292,6.785-3.963
			c11.374,18.811,20.412,38.96,23.702,60.564c10.329,0.192,19.913,3.427,27.89,8.849v-90.552
			c-10.542-11.289-22.247-21.402-37.335-28.435c-4.584-2.136-0.599-8.905,3.964-6.777c13.144,6.132,23.82,14.493,33.38,23.953
			V55.658H0V408.925z"/>
		<path d="M240.784,163.263c7.085,0,13.822,1.437,19.957,4.025c11.923-14.537,23.62-27.96,36.348-38.976V55.658H167.495v148.23
			c0.407,0.493,0.839,0.98,1.254,1.483c1.288,1.555,2.599,3.086,3.909,4.626c1.338,1.567,2.679,3.124,4.043,4.677
			c4.043-1.633,8.362-2.707,12.868-3.11c1.359-0.126,2.723-0.202,4.106-0.202c23.858,0,43.447,18.475,45.302,41.857
			c-1.996-0.2-4.012-0.305-6.05-0.305c-7.498,0-14.651,1.455-21.259,4.031c-17.969,6.993-31.655,22.522-36.067,41.613
			c-2.871-1.25-5.588-2.805-8.115-4.601v7.013v6.725v101.229h129.594v-96.744v-6.062v-6.172c-2.524-0.842-4.97-1.871-7.27-3.126
			c-3.603-13.701-11.99-25.463-23.312-33.342c-0.2-1.382-0.341-2.769-0.417-4.188c-0.044-0.817-0.12-1.639-0.12-2.469
			c0-18.153,10.716-33.811,26.133-41.094c1.619-0.764,3.282-1.453,4.993-2.028v-6.167v-6.069v-63.925
			c-10.535,10.43-19.965,21.911-29.335,33.44c11.578,7.167,20.094,18.771,23.14,32.47c-21.436,8.282-36.708,29.056-36.708,53.373
			c0,0.04,0.008,0.068,0.008,0.108c-1.094-0.421-2.184-0.85-3.311-1.21c-0.597-31.062-26.002-56.15-57.2-56.15
			c-0.689,0-1.356,0.078-2.036,0.1C198.057,178.604,217.618,163.263,240.784,163.263z M279.38,304.234
			c0.396,2.469,0.657,4.965,0.657,7.542c0,26.021-21.083,47.104-47.102,47.104c-25.437,0-46.107-20.178-47.019-45.393
			c-0.022-0.577-0.084-1.13-0.084-1.711c0-1.427,0.084-2.821,0.21-4.216c0.172-1.979,0.473-3.919,0.882-5.811
			c4.394-20.258,21.8-35.591,43.02-36.925c0.99-0.068,1.979-0.152,2.983-0.152c1.842,0,3.657,0.141,5.452,0.337
			c1.671,0.2,3.326,0.493,4.949,0.846c0.276,0.067,0.553,0.152,0.846,0.212c1.932,0.485,3.831,1.074,5.671,1.779
			c2.111,0.813,4.155,1.756,6.119,2.854c2.869,1.611,5.534,3.519,7.986,5.679c5.623,4.937,10.059,11.173,12.828,18.254
			C277.97,297.71,278.843,300.912,279.38,304.234z"/>
		<path d="M328.427,107.918c15.225-6.815,32.437-10.311,53.022-9.083c5.029,0.299,5.058,8.149,0,7.849
			c-18.49-1.1-36.632,0.998-53.022,8.211v87.251v6.248v6.271c15.448,6.248,26.693,20.721,28.272,37.98
			c0.124,1.371,0.217,2.766,0.217,4.168c0,19.067-11.807,35.405-28.489,42.158v6.271v6.247c23.3-7.253,40.263-29.018,40.263-54.677
			c0-1.11-0.104-2.185-0.168-3.274c9.253,1.844,17.604,6.168,24.349,12.255c24.409-31.142,23.66-71.288,36.801-109.132
			c1.654-4.752,9.229-2.711,7.573,2.086c-13.693,39.449-13.107,80.726-38.84,112.801c7.186,8.832,11.502,20.093,11.502,32.368
			c0,28.372-22.999,51.363-51.363,51.363c-11.273,0-21.645-3.663-30.116-9.811v63.454h136.156V55.658H328.427V107.918z"/>
		<path d="M167.495,219.708c0.683-0.487,1.389-0.944,2.098-1.38c-0.688-0.786-1.423-1.541-2.098-2.334V219.708z"/>
	</g>
</g>
<g>
</g>
<g>
</g>
<g>
</g>
<g>
</g>
<g>
</g>
<g>
</g>
<g>
</g>
<g>
</g>
<g>
</g>
<g>
</g>
<g>
</g>
<g>
</g>
<g>
</g>
<g>
</g>
<g>
</g>
</svg>
