<?xml version="1.0" encoding="iso-8859-1"?>
<!-- Generator: Adobe Illustrator 16.0.0, SVG Export Plug-In . SVG Version: 6.00 Build 0)  -->
<!DOCTYPE svg PUBLIC "-//W3C//DTD SVG 1.1//EN" "http://www.w3.org/Graphics/SVG/1.1/DTD/svg11.dtd">
<svg version="1.1" id="Capa_1" xmlns="http://www.w3.org/2000/svg" xmlns:xlink="http://www.w3.org/1999/xlink" x="0px" y="0px"
	 width="118.268px" height="118.268px" viewBox="0 0 118.268 118.268" style="enable-background:new 0 0 118.268 118.268;"
	 xml:space="preserve">
<g>
	<path d="M81.622,27.05c0.833-5.947,6.33-10.093,12.277-9.26c5.946,0.833,10.093,6.33,9.26,12.277
		c-0.833,5.947-6.331,10.094-12.278,9.26C84.934,38.494,80.789,32.997,81.622,27.05z M115.691,53.732l-10.433-1.569L93.725,41.826
		c-0.09-0.08-0.191-0.165-0.29-0.238c-0.354-0.271-0.739-0.478-1.137-0.63c-1.666-1.25-3.729-2-5.971-2c-0.012,0-0.025,0-0.038,0
		c-0.631,0.002-1.245,0.07-1.843,0.184c-1.281-0.259-2.663,0.023-3.771,0.896l-11.741,9.271l-0.309,0.244
		c-0.622,0.492-1.07,1.206-1.217,2.048l-1.432,8.264l-0.708,4.139l-0.721,4.371c-0.241,1.488,0.67,2.967,2.157,3.38
		c1.597,0.443,3.251-0.491,3.695-2.088l0.126-0.455L74.5,54.909l1.874-1.2l0.058,15.288c0.007,1.545,0.373,3.002,1.006,4.304
		l-0.4,13.246l-9.091,20.024c-0.681,1.512-0.125,3.338,1.341,4.187c1.562,0.906,3.567,0.372,4.474-1.191l11.58-19.988
		c0.229-0.398,0.39-0.865,0.44-1.353l0.039-0.369l0.94-8.943c0.838-0.03,1.649-0.16,2.421-0.384l5.657,7.809l3.246,20.581
		c0.266,1.655,1.761,2.876,3.466,2.755c1.804-0.129,3.161-1.695,3.032-3.498l-1.568-21.963c-0.036-0.491-0.182-0.998-0.443-1.455
		l-0.204-0.353l-6.315-10.98c0.204-0.802,0.323-1.637,0.32-2.502l-0.051-13.582l4.678,3.552l0.347,0.263
		c0.519,0.395,1.166,0.627,1.867,0.626l12.034-0.028c1.471-0.003,2.761-1.078,2.986-2.577
		C118.482,55.523,117.343,53.981,115.691,53.732z M59.43,42.499c-2.456-1.783-4.143-3.568-4.215-3.645l-0.223-0.237l0.854-1.174
		l-1.662-1.207L39.591,47.123c-1.023,0.764-2.309,0.911-3.432,0.525l-1.418,11.604c0,0.002,0,0.004,0,0.007l9.733,10.146
		l0.246,0.257c0.893,0.929,1.228,2.207,1.023,3.384l-4.459,24.781c-0.319,1.778-2.021,2.961-3.799,2.641
		c-1.695-0.305-2.847-1.875-2.677-3.559L37.171,74.2l-8.201-7.088c-0.952,0.435-1.977,0.725-3.047,0.84l-0.271,7.104l-0.017,0.408
		c-0.019,0.502-0.153,0.988-0.365,1.408l-9.997,19.623c-0.82,1.611-2.792,2.254-4.404,1.432c-1.504-0.766-2.157-2.551-1.569-4.094
		l7.495-19.469l-0.534-11.271c-1.073-1.822-1.587-3.994-1.312-6.257l2.092-17.125l-3.085,0.859l-3.766,6.674l-2.289,4.132
		L6.79,53.431l-0.527,1.004l-0.234,0.463l-0.083,0.168l-0.013,0.011c0.004-0.015-0.009,0.021,0.001-0.015
		c-0.362,1.354-1.635,2.315-3.089,2.23c-1.665-0.096-2.936-1.523-2.84-3.188c0.013-0.179,0.039-0.358,0.077-0.536l0.065-0.264
		l0.033-0.11l0.088-0.269l0.138-0.383l0.241-0.624l0.466-1.152l0.937-2.228l1.898-4.392l3.853-8.726
		c0.398-0.9,1.131-1.547,1.988-1.857l0.337-0.121l9.818-3.523c1.763-2.034,4.322-3.313,7.123-3.426
		c-2.486-2.261-3.713-5.76-2.907-9.268c0.248-1.074,0.674-2.057,1.229-2.939c-0.31-0.183-0.419-0.566-0.241-1.329l0.519-2.255
		c0.584-2.521,3.101-4.097,5.62-3.512l10.05,2.318c2.528,0.586,4.097,3.102,3.515,5.625l-0.418,1.824
		c1.324,1.266,2.396,2.814,2,4.312c-0.353,1.332-1.821,0.863-3.482-0.207c-0.028,0.159-0.048,0.319-0.084,0.481
		c-0.983,4.251-4.65,7.178-8.797,7.416c2.382,2.102,3.724,5.301,3.31,8.691l-0.055,0.447l0.706,0.746l10.818-6.708l-2.104-1.585
		l2.104-2.793l3.188,2.4l1.2-0.743c1.418-0.88,3.28-0.442,4.16,0.976c0.671,1.082,0.558,2.42-0.157,3.388l1.483,1.077l-0.065,0.093
		l13.066,9.483l-0.61,0.842l-0.089,0.044C67.211,47.176,62.615,44.811,59.43,42.499z M6.033,54.453
		c-0.012,0.207-0.045,0.408-0.096,0.602c0.001-0.006,0.002-0.009,0.005-0.019c0.019-0.063,0.034-0.127,0.047-0.191
		C6.017,54.716,6.03,54.583,6.033,54.453z M49.424,31.785l2.04-1.265l-2.49-1.877l-1.346,1.787L49.424,31.785z M56.318,36.746
		l1.232-1.699l-0.898-0.651c-0.006,0.004-0.011,0.01-0.017,0.014l-1.745,1.302L56.318,36.746z M70.595,44.657l0.033-0.047
		l-12.432-9.021l-1.693,2.331l-0.021-0.017l-0.469,0.645c0.539,0.542,1.991,1.945,3.88,3.316
		C62.877,44.031,67.144,46.262,70.595,44.657z M60.328,38.062l0.612,3.863l0.415-0.066l-0.614-3.863L60.328,38.062z M61.447,38.874
		l0.612,3.862l0.416-0.065l-0.613-3.863L61.447,38.874z"/>
</g>
<g>
</g>
<g>
</g>
<g>
</g>
<g>
</g>
<g>
</g>
<g>
</g>
<g>
</g>
<g>
</g>
<g>
</g>
<g>
</g>
<g>
</g>
<g>
</g>
<g>
</g>
<g>
</g>
<g>
</g>
</svg>
