<?xml version="1.0" encoding="iso-8859-1"?>
<!-- Generator: Adobe Illustrator 19.0.0, SVG Export Plug-In . SVG Version: 6.00 Build 0)  -->
<svg version="1.1" id="Layer_1" xmlns="http://www.w3.org/2000/svg" xmlns:xlink="http://www.w3.org/1999/xlink" x="0px" y="0px"
	 viewBox="0 0 512 512" style="enable-background:new 0 0 512 512;" xml:space="preserve">
<path style="fill:#ACABB1;" d="M458.667,195.745l-26.07,26.07v107.799c0,12.962-10.539,23.5-23.5,23.5s-23.5-10.539-23.5-23.5
	v-60.798l-45.956,45.956v154.8c0,12.962-10.539,23.5-23.5,23.5s-23.5-10.539-23.5-23.5V361.773l-48.035,48.035l-42.948-42.948
	l-86.555,86.544l-23.866,58.594l-72.12-72.12l127.78-127.78l-15.291-15.291L428.42,0.002l30.248,30.248
	C504.29,75.872,504.29,150.112,458.667,195.745z"/>
<path style="fill:#A5001E;" d="M292.64,361.773v107.799c0,12.962,10.539,23.5,23.5,23.5s23.5-10.539,23.5-23.5V314.991h-0.219
	L292.64,361.773z"/>
<path style="fill:#D80027;" d="M432.598,191.745v137.869c0,12.962-10.539,23.5-23.5,23.5s-23.5-10.539-23.5-23.5V225.167
	l33.423-33.423H432.598z"/>
<path style="fill:#6A563D;" d="M190.366,355.986l18.121-18.121c4.355-4.355,6.758-10.142,6.758-16.304
	c0-6.152-2.402-11.949-6.758-16.304c-8.982-8.982-23.615-8.982-32.598,0.01L41.269,439.878l44.358,44.358l16.168-39.679l4.314-4.314
	l-13.024-13.024l11.071-11.082l13.024,13.024l3.489-3.478l-13.024-13.024l11.071-11.082l13.024,13.024l3.875-3.865l-13.024-13.024
	l11.071-11.071l13.024,13.024l3.488-3.488l-13.024-13.024l11.071-11.071l13.024,13.024l3.478-3.488l-13.014-13.024l11.071-11.071
	l13.024,13.024l3.489-3.488l-13.024-13.024l11.071-11.071L190.366,355.986z M187.455,313.919c3.015-3.015,7.904-3.015,10.92,0
	c3.015,3.015,3.015,7.905,0,10.92c-3.015,3.015-7.904,3.015-10.92,0C184.439,321.823,184.439,316.934,187.455,313.919z"/>
<path d="M323.973,469.572c0,4.32-3.514,7.833-7.833,7.833s-7.833-3.514-7.833-7.833v-17.756H292.64v17.756
	c0,12.958,10.543,23.5,23.5,23.5s23.5-10.543,23.5-23.5v-39.69h-15.667V469.572z"/>
<path d="M458.668,30.251L428.418,0L131.606,296.811l15.288,15.288L19.112,439.881L91.233,512l23.873-58.599l86.545-86.545
	l42.951,42.95l48.037-48.037v78.557h15.667v-94.223l15.667-15.667v89.001h15.667V314.77l45.956-45.956v10.666h15.667v-56.401
	h-15.667v23.577L244.602,387.65l-31.873-31.873l6.836-6.836c7.313-7.313,11.341-17.037,11.341-27.379
	c0-2.484-0.238-4.931-0.692-7.32l53.257-53.256l-11.079-11.079l-48.885,48.885c-1.183-1.62-2.495-3.164-3.941-4.61
	c-1.307-1.307-2.688-2.492-4.124-3.572l34.056-34.055l-11.078-11.079l-38.225,38.225c-12.38-2.598-25.793,0.89-35.384,10.481
	l-6.837,6.837l-4.209-4.209L428.418,22.156l19.173,19.173c19.143,19.142,29.686,44.593,29.686,71.666s-10.543,52.524-29.686,71.666
	l-14.992,14.992v-7.91h-15.667v108.624h15.667v-78.555l26.072-26.072C504.294,150.115,504.294,75.876,458.668,30.251z
	 M175.886,305.262c8.988-8.988,23.612-8.988,32.601-0.001c4.353,4.355,6.751,10.144,6.751,16.301c0,6.157-2.398,11.947-6.751,16.299
	l-18.12,18.12l-13.024-13.024l-11.078,11.079l13.024,13.024l-3.481,3.481l-13.024-13.024l-11.078,11.079l13.023,13.024l-3.481,3.481
	l-13.024-13.024l-11.078,11.079l13.024,13.024l-3.481,3.481l-13.024-13.024l-11.079,11.079l13.024,13.024l-3.866,3.866
	l-13.024-13.024l-11.078,11.079l13.024,13.024l-3.481,3.481l-13.024-13.024l-11.078,11.079l13.024,13.024l-4.315,4.315
	l-16.169,39.68l-44.357-44.357L175.886,305.262z"/>
<g>
	<path style="fill:#FFFFFF;" d="M254.813,327.207l11.079,11.079l159.08-159.079c21.606-21.608,31.561-52.533,26.625-82.729
		l-15.461,2.528c4.122,25.231-4.192,51.071-22.244,69.123L254.813,327.207z"/>
	<path style="fill:#FFFFFF;" d="M438.939,62.323l-13.368,8.168c3.623,5.929,6.451,12.324,8.406,19.004l15.037-4.4
		C446.67,77.091,443.28,69.429,438.939,62.323z"/>
</g>
<circle cx="192.912" cy="319.376" r="7.722"/>
<path d="M416.931,329.614c0,4.32-3.514,7.833-7.833,7.833s-7.833-3.514-7.833-7.833v-39.69h-15.667v39.69
	c0,12.958,10.543,23.5,23.5,23.5s23.5-10.543,23.5-23.5v-17.756h-15.667V329.614z"/>
<rect x="247.522" y="226.575" transform="matrix(0.7071 -0.7071 0.7071 0.7071 -89.4305 252.9132)" width="26.111" height="15.667"/>
<g>
</g>
<g>
</g>
<g>
</g>
<g>
</g>
<g>
</g>
<g>
</g>
<g>
</g>
<g>
</g>
<g>
</g>
<g>
</g>
<g>
</g>
<g>
</g>
<g>
</g>
<g>
</g>
<g>
</g>
</svg>
