<?xml version="1.0" encoding="iso-8859-1"?>
<!-- Generator: Adobe Illustrator 18.0.0, SVG Export Plug-In . SVG Version: 6.00 Build 0)  -->
<!DOCTYPE svg PUBLIC "-//W3C//DTD SVG 1.1//EN" "http://www.w3.org/Graphics/SVG/1.1/DTD/svg11.dtd">
<svg version="1.1" id="Capa_1" xmlns="http://www.w3.org/2000/svg" xmlns:xlink="http://www.w3.org/1999/xlink" x="0px" y="0px"
	 viewBox="0 0 482.85 482.85" style="enable-background:new 0 0 482.85 482.85;" xml:space="preserve">
<g>
	<radialGradient id="SVGID_1_" cx="241.425" cy="225.5575" r="223.5" gradientUnits="userSpaceOnUse">
		<stop  offset="0" style="stop-color:#FBB03B;stop-opacity:0.9532"/>
		<stop  offset="0.1427" style="stop-color:#FBB950;stop-opacity:0.8172"/>
		<stop  offset="0.4391" style="stop-color:#FDCF88;stop-opacity:0.5347"/>
		<stop  offset="0.8603" style="stop-color:#FEF3E0;stop-opacity:0.1331"/>
		<stop  offset="1" style="stop-color:#FFFFFF;stop-opacity:0"/>
	</radialGradient>
	<circle style="fill:url(#SVGID_1_);" cx="241.425" cy="225.557" r="223.5"/>
	<linearGradient id="SVGID_2_" gradientUnits="userSpaceOnUse" x1="213.1" y1="88.265" x2="268.43" y2="88.265">
		<stop  offset="0" style="stop-color:#EDCF24"/>
		<stop  offset="0.1977" style="stop-color:#EECD24"/>
		<stop  offset="0.3139" style="stop-color:#EFC422"/>
		<stop  offset="0.4091" style="stop-color:#F3B61F"/>
		<stop  offset="0.4928" style="stop-color:#F7A21B"/>
		<stop  offset="0.5683" style="stop-color:#FD8817"/>
		<stop  offset="0.5886" style="stop-color:#FF8015"/>
		<stop  offset="0.6698" style="stop-color:#FB7E15"/>
		<stop  offset="0.7486" style="stop-color:#EF7814"/>
		<stop  offset="0.8264" style="stop-color:#DC6E12"/>
		<stop  offset="0.9037" style="stop-color:#C16110"/>
		<stop  offset="0.9799" style="stop-color:#9E4F0D"/>
		<stop  offset="1" style="stop-color:#934A0C"/>
	</linearGradient>
	<path style="fill:url(#SVGID_2_);" d="M255.899,131.93h-30.268c-6.921,0-12.531-5.61-12.531-12.531V57.131
		c0-6.921,5.61-12.531,12.531-12.531h30.268c6.921,0,12.531,5.61,12.531,12.531v62.267C268.43,126.32,262.82,131.93,255.899,131.93z
		"/>
	<linearGradient id="SVGID_3_" gradientUnits="userSpaceOnUse" x1="264.68" y1="143.07" x2="218.18" y2="143.07">
		<stop  offset="0" style="stop-color:#ED1C24"/>
		<stop  offset="0.3699" style="stop-color:#B7161C"/>
		<stop  offset="1" style="stop-color:#530A0D"/>
	</linearGradient>
	<path style="fill:url(#SVGID_3_);" d="M264.68,142.83v0.48c0,1.91-1.56,3.47-3.47,3.47h-39.57c-1.91,0-3.46-1.56-3.46-3.47v-0.48
		c0-1.91,1.55-3.47,3.46-3.47h9.15h21.28h9.14C263.12,139.36,264.68,140.92,264.68,142.83z"/>
	<linearGradient id="SVGID_4_" gradientUnits="userSpaceOnUse" x1="241.425" y1="465.56" x2="241.425" y2="360.3925">
		<stop  offset="0" style="stop-color:#333333"/>
		<stop  offset="0.0742" style="stop-color:#323E43;stop-opacity:0.9261"/>
		<stop  offset="0.4015" style="stop-color:#2E6D87;stop-opacity:0.5999"/>
		<stop  offset="0.6758" style="stop-color:#2B8EB8;stop-opacity:0.3265"/>
		<stop  offset="0.8834" style="stop-color:#2AA3D7;stop-opacity:0.1196"/>
		<stop  offset="1" style="stop-color:#29ABE2;stop-opacity:0.0034"/>
	</linearGradient>
	<path style="fill:url(#SVGID_4_);" d="M252.63,362.68c2.57,1.14,4.84,2.67,6.8,4.52c-4.34,35.86-10.19,71.26-18,98.36
		c-7.82-27.1-13.66-62.49-18.01-98.35c1.96-1.86,4.23-3.39,6.81-4.53C237.11,359.63,245.76,359.63,252.63,362.68z"/>
	<linearGradient id="SVGID_5_" gradientUnits="userSpaceOnUse" x1="262.59" y1="290.16" x2="262.59" y2="357.89">
		<stop  offset="0" style="stop-color:#333333"/>
		<stop  offset="0.0251" style="stop-color:#323A3E;stop-opacity:0.975"/>
		<stop  offset="0.1399" style="stop-color:#305869;stop-opacity:0.8606"/>
		<stop  offset="0.2602" style="stop-color:#2E728E;stop-opacity:0.7407"/>
		<stop  offset="0.3849" style="stop-color:#2C86AD;stop-opacity:0.6164"/>
		<stop  offset="0.5154" style="stop-color:#2B97C4;stop-opacity:0.4864"/>
		<stop  offset="0.654" style="stop-color:#2AA2D5;stop-opacity:0.3482"/>
		<stop  offset="0.8066" style="stop-color:#29A9DF;stop-opacity:0.1962"/>
		<stop  offset="1" style="stop-color:#29ABE2;stop-opacity:0.0034"/>
	</linearGradient>
	<path style="fill:url(#SVGID_5_);" d="M266.78,290.16c-1.55,21.04-3.59,44.34-6.26,67.73c-0.68-0.45-1.39-0.87-2.12-1.26
		c1.28-20.44,2.4-42.51,3.35-65.69C263.44,290.71,265.11,290.45,266.78,290.16z"/>
	<linearGradient id="SVGID_6_" gradientUnits="userSpaceOnUse" x1="249.57" y1="291.84" x2="249.57" y2="353.52">
		<stop  offset="0" style="stop-color:#333333"/>
		<stop  offset="0.0251" style="stop-color:#323A3E;stop-opacity:0.975"/>
		<stop  offset="0.1399" style="stop-color:#305869;stop-opacity:0.8606"/>
		<stop  offset="0.2602" style="stop-color:#2E728E;stop-opacity:0.7407"/>
		<stop  offset="0.3849" style="stop-color:#2C86AD;stop-opacity:0.6164"/>
		<stop  offset="0.5154" style="stop-color:#2B97C4;stop-opacity:0.4864"/>
		<stop  offset="0.654" style="stop-color:#2AA2D5;stop-opacity:0.3482"/>
		<stop  offset="0.8066" style="stop-color:#29A9DF;stop-opacity:0.1962"/>
		<stop  offset="1" style="stop-color:#29ABE2;stop-opacity:0.0034"/>
	</linearGradient>
	<path style="fill:url(#SVGID_6_);" d="M253.71,291.84c-0.9,21.69-1.95,42.39-3.13,61.68c-1.68-0.43-3.41-0.75-5.15-0.94V292.3
		C248.2,292.22,250.96,292.06,253.71,291.84z"/>
	<linearGradient id="SVGID_7_" gradientUnits="userSpaceOnUse" x1="233.29" y1="291.84" x2="233.29" y2="353.52">
		<stop  offset="0" style="stop-color:#333333"/>
		<stop  offset="0.0251" style="stop-color:#323A3E;stop-opacity:0.975"/>
		<stop  offset="0.1399" style="stop-color:#305869;stop-opacity:0.8606"/>
		<stop  offset="0.2602" style="stop-color:#2E728E;stop-opacity:0.7407"/>
		<stop  offset="0.3849" style="stop-color:#2C86AD;stop-opacity:0.6164"/>
		<stop  offset="0.5154" style="stop-color:#2B97C4;stop-opacity:0.4864"/>
		<stop  offset="0.654" style="stop-color:#2AA2D5;stop-opacity:0.3482"/>
		<stop  offset="0.8066" style="stop-color:#29A9DF;stop-opacity:0.1962"/>
		<stop  offset="1" style="stop-color:#29ABE2;stop-opacity:0.0034"/>
	</linearGradient>
	<path style="fill:url(#SVGID_7_);" d="M237.43,292.3v60.28c-1.74,0.19-3.47,0.51-5.15,0.94c-1.18-19.29-2.23-39.99-3.13-61.68
		C231.9,292.06,234.66,292.22,237.43,292.3z"/>
	<linearGradient id="SVGID_8_" gradientUnits="userSpaceOnUse" x1="220.265" y1="290.16" x2="220.265" y2="357.9">
		<stop  offset="0" style="stop-color:#333333"/>
		<stop  offset="0.0251" style="stop-color:#323A3E;stop-opacity:0.975"/>
		<stop  offset="0.1399" style="stop-color:#305869;stop-opacity:0.8606"/>
		<stop  offset="0.2602" style="stop-color:#2E728E;stop-opacity:0.7407"/>
		<stop  offset="0.3849" style="stop-color:#2C86AD;stop-opacity:0.6164"/>
		<stop  offset="0.5154" style="stop-color:#2B97C4;stop-opacity:0.4864"/>
		<stop  offset="0.654" style="stop-color:#2AA2D5;stop-opacity:0.3482"/>
		<stop  offset="0.8066" style="stop-color:#29A9DF;stop-opacity:0.1962"/>
		<stop  offset="1" style="stop-color:#29ABE2;stop-opacity:0.0034"/>
	</linearGradient>
	<path style="fill:url(#SVGID_8_);" d="M224.46,356.63c-0.73,0.4-1.44,0.82-2.13,1.27c-2.67-23.4-4.71-46.7-6.26-67.74
		c1.67,0.29,3.35,0.55,5.04,0.79C222.06,314.12,223.18,336.19,224.46,356.63z"/>
	<linearGradient id="SVGID_9_" gradientUnits="userSpaceOnUse" x1="270.04" y1="204.65" x2="270.04" y2="183.58">
		<stop  offset="0" style="stop-color:#333333"/>
		<stop  offset="0.0523" style="stop-color:#323B3E;stop-opacity:0.9479"/>
		<stop  offset="0.3892" style="stop-color:#2E6B84;stop-opacity:0.6122"/>
		<stop  offset="0.6705" style="stop-color:#2B8DB7;stop-opacity:0.3318"/>
		<stop  offset="0.8823" style="stop-color:#2AA3D6;stop-opacity:0.1208"/>
		<stop  offset="1" style="stop-color:#29ABE2;stop-opacity:0.0034"/>
	</linearGradient>
	<path style="fill:url(#SVGID_9_);" d="M272.2,183.58c-0.13,4.66-0.35,11.89-0.69,21.07c-1.21-0.26-2.42-0.49-3.63-0.72
		c0.2-8.56,0.33-14.9,0.39-18.64C269.57,184.7,270.88,184.12,272.2,183.58z"/>
	<linearGradient id="SVGID_10_" gradientUnits="userSpaceOnUse" x1="212.825" y1="204.65" x2="212.825" y2="183.58">
		<stop  offset="0" style="stop-color:#333333"/>
		<stop  offset="0.0523" style="stop-color:#323B3E;stop-opacity:0.9479"/>
		<stop  offset="0.3892" style="stop-color:#2E6B84;stop-opacity:0.6122"/>
		<stop  offset="0.6705" style="stop-color:#2B8DB7;stop-opacity:0.3318"/>
		<stop  offset="0.8823" style="stop-color:#2AA3D6;stop-opacity:0.1208"/>
		<stop  offset="1" style="stop-color:#29ABE2;stop-opacity:0.0034"/>
	</linearGradient>
	<path style="fill:url(#SVGID_10_);" d="M214.59,185.3c0.07,3.99,0.19,10.29,0.4,18.63c-1.22,0.22-2.44,0.46-3.65,0.72
		c-0.34-9.18-0.56-16.41-0.68-21.07C211.98,184.12,213.29,184.7,214.59,185.3z"/>
	<linearGradient id="SVGID_11_" gradientUnits="userSpaceOnUse" x1="230.05" y1="202.69" x2="230.05" y2="189.44">
		<stop  offset="0" style="stop-color:#333333"/>
		<stop  offset="0.0523" style="stop-color:#323B3E;stop-opacity:0.9479"/>
		<stop  offset="0.3892" style="stop-color:#2E6B84;stop-opacity:0.6122"/>
		<stop  offset="0.6705" style="stop-color:#2B8DB7;stop-opacity:0.3318"/>
		<stop  offset="0.8823" style="stop-color:#2AA3D6;stop-opacity:0.1208"/>
		<stop  offset="1" style="stop-color:#29ABE2;stop-opacity:0.0034"/>
	</linearGradient>
	<path style="fill:url(#SVGID_11_);" d="M237.43,197.91v3.67c-4.84,0.13-9.67,0.51-14.47,1.11c-0.13-5.31-0.22-9.75-0.29-13.25
		c0.04,0.03,0.08,0.05,0.13,0.08L237.43,197.91z"/>
	<linearGradient id="SVGID_12_" gradientUnits="userSpaceOnUse" x1="252.815" y1="202.7" x2="252.815" y2="189.44">
		<stop  offset="0" style="stop-color:#333333"/>
		<stop  offset="0.0523" style="stop-color:#323B3E;stop-opacity:0.9479"/>
		<stop  offset="0.3892" style="stop-color:#2E6B84;stop-opacity:0.6122"/>
		<stop  offset="0.6705" style="stop-color:#2B8DB7;stop-opacity:0.3318"/>
		<stop  offset="0.8823" style="stop-color:#2AA3D6;stop-opacity:0.1208"/>
		<stop  offset="1" style="stop-color:#29ABE2;stop-opacity:0.0034"/>
	</linearGradient>
	<path style="fill:url(#SVGID_12_);" d="M260.06,189.52c0.04-0.03,0.09-0.05,0.14-0.08c-0.07,3.42-0.17,7.87-0.29,13.26
		c-4.81-0.61-9.64-0.99-14.48-1.12v-3.67L260.06,189.52z"/>
	<linearGradient id="SVGID_13_" gradientUnits="userSpaceOnUse" x1="241.425" y1="209.515" x2="241.425" y2="241.6">
		<stop  offset="0" style="stop-color:#000000"/>
		<stop  offset="1" style="stop-color:#865010"/>
	</linearGradient>
	<path style="fill:url(#SVGID_13_);" d="M260.16,210.79c1.55,2.99,2.37,6.31,2.37,9.71c0,11.64-9.47,21.1-21.1,21.1
		c-11.64,0-21.11-9.46-21.11-21.1c0-3.4,0.82-6.72,2.38-9.71C235.12,209.09,247.73,209.09,260.16,210.79z"/>
	<linearGradient id="SVGID_14_" gradientUnits="userSpaceOnUse" x1="241.425" y1="260.24" x2="241.425" y2="212.36">
		<stop  offset="0" style="stop-color:#3EA9DC"/>
		<stop  offset="1" style="stop-color:#0071BC"/>
	</linearGradient>
	<path style="fill:url(#SVGID_14_);" d="M280.81,215.24c0.23,1.74,0.36,3.5,0.36,5.26c0,21.91-17.83,39.74-39.74,39.74
		c-21.92,0-39.75-17.83-39.75-39.74c0-1.76,0.13-3.52,0.36-5.26c3.78-1.12,7.59-2.08,11.44-2.88c-0.76,2.63-1.16,5.37-1.16,8.14
		c0,16.05,13.06,29.1,29.11,29.1c16.04,0,29.1-13.05,29.1-29.1c0-2.77-0.39-5.51-1.16-8.14
		C273.22,213.16,277.03,214.12,280.81,215.24z"/>
	<linearGradient id="SVGID_15_" gradientUnits="userSpaceOnUse" x1="241.43" y1="284.35" x2="241.43" y2="217.99">
		<stop  offset="0" style="stop-color:#FFACAC"/>
		<stop  offset="0.3559" style="stop-color:#FFFFFF"/>
		<stop  offset="0.5065" style="stop-color:#FCFCFC"/>
		<stop  offset="0.6157" style="stop-color:#F3F3F3"/>
		<stop  offset="0.7118" style="stop-color:#E3E3E3"/>
		<stop  offset="0.8003" style="stop-color:#CDCDCD"/>
		<stop  offset="0.8837" style="stop-color:#B0B0B0"/>
		<stop  offset="0.9622" style="stop-color:#8D8D8D"/>
		<stop  offset="1" style="stop-color:#797979"/>
	</linearGradient>
	<path style="fill:url(#SVGID_15_);" d="M289.1,217.99c16.9,6.22,32.81,15.85,46.66,28.91c-25.62,24.19-58.96,37.45-94.33,37.45
		c-35.38,0-68.72-13.26-94.33-37.45c13.84-13.06,29.76-22.69,46.65-28.91c-0.04,0.84-0.07,1.67-0.07,2.51
		c0,26.33,21.42,47.74,47.75,47.74c26.32,0,47.74-21.41,47.74-47.74C289.17,219.66,289.14,218.83,289.1,217.99z"/>
	<linearGradient id="SVGID_16_" gradientUnits="userSpaceOnUse" x1="314.925" y1="167.95" x2="314.925" y2="155.14">
		<stop  offset="0" style="stop-color:#3EA9DC"/>
		<stop  offset="0.7889" style="stop-color:#AFD9F0"/>
		<stop  offset="1" style="stop-color:#1E9CD7"/>
	</linearGradient>
	<path style="fill:url(#SVGID_16_);" d="M319.89,155.14v3.92c0,4.89-3.98,8.87-8.87,8.87c-0.35,0-0.7,0.02-1.06,0.02v-12.81H319.89z
		"/>
	<linearGradient id="SVGID_17_" gradientUnits="userSpaceOnUse" x1="298.435" y1="155.14" x2="298.435" y2="169.13">
		<stop  offset="0" style="stop-color:#ED1C24"/>
		<stop  offset="0.3699" style="stop-color:#B7161C"/>
		<stop  offset="1" style="stop-color:#530A0D"/>
	</linearGradient>
	<path style="fill:url(#SVGID_17_);" d="M301.96,155.14v13.18c-2.36,0.2-4.71,0.47-7.05,0.81v-13.99H301.96z"/>
	<linearGradient id="SVGID_18_" gradientUnits="userSpaceOnUse" x1="167.925" y1="167.95" x2="167.925" y2="155.14">
		<stop  offset="0" style="stop-color:#3EA9DC"/>
		<stop  offset="0.7889" style="stop-color:#AFD9F0"/>
		<stop  offset="1" style="stop-color:#1E9CD7"/>
	</linearGradient>
	<path style="fill:url(#SVGID_18_);" d="M172.89,155.14v12.81c-0.35,0-0.7-0.02-1.05-0.02c-4.9,0-8.88-3.98-8.88-8.87v-3.92H172.89z
		"/>
	<linearGradient id="SVGID_19_" gradientUnits="userSpaceOnUse" x1="184.415" y1="155.14" x2="184.415" y2="169.13">
		<stop  offset="0" style="stop-color:#ED1C24"/>
		<stop  offset="0.3699" style="stop-color:#B7161C"/>
		<stop  offset="1" style="stop-color:#530A0D"/>
	</linearGradient>
	<path style="fill:url(#SVGID_19_);" d="M187.94,155.14v13.99c-2.34-0.34-4.69-0.62-7.05-0.81v-13.18H187.94z"/>
	<linearGradient id="SVGID_20_" gradientUnits="userSpaceOnUse" x1="241.425" y1="190.98" x2="241.425" y2="155.14">
		<stop  offset="0" style="stop-color:#3EA9DC"/>
		<stop  offset="0.7889" style="stop-color:#AFD9F0"/>
		<stop  offset="1" style="stop-color:#1E9CD7"/>
	</linearGradient>
	<path style="fill:url(#SVGID_20_);" d="M286.91,155.14v15.47c-10.78,2.42-21.2,6.43-30.84,11.97l-14.64,8.4l-14.65-8.4
		c-9.64-5.54-20.05-9.55-30.84-11.97v-15.47H286.91z"/>
	<path d="M347.4,211.45c1.92,1.08,2.6,3.52,1.51,5.45l-11.63,20.58c2.4,2.11,4.75,4.3,7.05,6.59c0.75,0.75,1.17,1.77,1.17,2.83
		c0,1.06-0.42,2.08-1.17,2.83c-19.41,19.41-43.34,32.65-69.4,38.76c-4.5,61.87-13.27,144.2-29.73,191.67
		c-0.55,1.61-2.07,2.69-3.77,2.69c-1.71,0-3.23-1.08-3.78-2.69c-16.46-47.47-25.23-129.8-29.73-191.67
		c-26.06-6.11-49.99-19.35-69.39-38.76c-0.75-0.75-1.17-1.77-1.17-2.83c0-1.06,0.42-2.08,1.17-2.83c2.5-2.5,5.08-4.89,7.72-7.17
		l-11.3-20c-1.09-1.93-0.41-4.37,1.51-5.45c1.92-1.09,4.37-0.41,5.45,1.51l10.63,18.8c6.47-5,13.26-9.39,20.31-13.15l-6.25-20.51
		c-0.64-2.12,0.55-4.35,2.67-5c2.1-0.64,4.34,0.55,4.99,2.66l5.85,19.25c7.56-3.5,15.35-6.34,23.29-8.47
		c-0.47-12.41-0.71-21.52-0.82-25.87c-9.92-3.12-20.29-4.74-30.74-4.74c-9.31,0-16.88-7.57-16.88-16.87v-7.92c0-2.21,1.79-4,4-4
		h51.89c-0.43-1.2-0.67-2.48-0.67-3.83v-0.48c0-4.22,2.29-7.9,5.69-9.9c-3.52-3.69-5.69-8.68-5.69-14.18V59.46
		c0-5.49,2.17-10.48,5.69-14.18c-3.4-1.99-5.69-5.68-5.69-9.89V34.9c0-4.3,2.38-8.05,5.89-10.01C216.17,11.15,227.38,0,241.15,0
		c13.66,0,24.8,10.99,25.06,24.6c3.82,1.86,6.47,5.77,6.47,10.3v0.49c0,4.21-2.3,7.9-5.7,9.89c3.52,3.7,5.7,8.69,5.7,14.18v59.29
		c0,5.5-2.18,10.49-5.7,14.18c3.4,2,5.7,5.68,5.7,9.9v0.48c0,1.35-0.25,2.63-0.67,3.83h51.88c2.21,0,4,1.79,4,4v7.92
		c0,9.3-7.57,16.87-16.87,16.87c-10.46,0-20.83,1.63-30.75,4.75c-0.1,4.34-0.35,13.45-0.82,25.86c8.25,2.22,16.34,5.19,24.17,8.88
		l5.98-19.66c0.65-2.11,2.88-3.3,4.99-2.66c2.12,0.65,3.31,2.88,2.67,5l-6.39,20.99c6.99,3.79,13.73,8.2,20.14,13.22l10.94-19.35
		C343.03,211.04,345.47,210.36,347.4,211.45z M319.89,159.06v-3.92h-9.93v12.81c0.36,0,0.71-0.02,1.06-0.02
		C315.91,167.93,319.89,163.95,319.89,159.06z M335.76,246.9c-13.85-13.06-29.76-22.69-46.66-28.91c0.04,0.84,0.07,1.67,0.07,2.51
		c0,26.33-21.42,47.74-47.74,47.74c-26.33,0-47.75-21.41-47.75-47.74c0-0.84,0.03-1.67,0.07-2.51
		c-16.89,6.22-32.81,15.85-46.65,28.91c25.61,24.19,58.95,37.45,94.33,37.45C276.8,284.35,310.14,271.09,335.76,246.9z
		 M301.96,168.32v-13.18h-7.05v13.99C297.25,168.79,299.6,168.52,301.96,168.32z M286.91,170.61v-15.47h-90.97v15.47
		c10.79,2.42,21.2,6.43,30.84,11.97l14.65,8.4l14.64-8.4C265.71,177.04,276.13,173.03,286.91,170.61z M281.17,220.5
		c0-1.76-0.13-3.52-0.36-5.26c-3.78-1.12-7.59-2.08-11.44-2.88c0.77,2.63,1.16,5.37,1.16,8.14c0,16.05-13.06,29.1-29.1,29.1
		c-16.05,0-29.11-13.05-29.11-29.1c0-2.77,0.4-5.51,1.16-8.14c-3.85,0.8-7.66,1.76-11.44,2.88c-0.23,1.74-0.36,3.5-0.36,5.26
		c0,21.91,17.83,39.74,39.75,39.74C263.34,260.24,281.17,242.41,281.17,220.5z M271.51,204.65c0.34-9.18,0.56-16.41,0.69-21.07
		c-1.32,0.54-2.63,1.12-3.93,1.71c-0.06,3.74-0.19,10.08-0.39,18.64C269.09,204.16,270.3,204.39,271.51,204.65z M264.68,143.31
		v-0.48c0-1.91-1.56-3.47-3.47-3.47h-9.14h-21.28h-9.15c-1.91,0-3.46,1.56-3.46,3.47v0.48c0,1.91,1.55,3.47,3.46,3.47h39.57
		C263.12,146.78,264.68,145.22,264.68,143.31z M264.68,118.75v-0.74l-8.84-8.84l-8.76,8.75l11.57,11.57
		C262.26,127.26,264.68,123.29,264.68,118.75z M264.68,106.69v-6.36l-3.19,3.18L264.68,106.69z M264.68,77.89v-6.38l-3.19,3.19
		L264.68,77.89z M264.68,60.2v-0.74c0-4.53-2.42-8.51-6.03-10.73L247.08,60.3l8.75,8.75L264.68,60.2z M264.68,35.39V34.9
		c0-1.91-1.56-3.47-3.47-3.47h-39.57c-1.91,0-3.46,1.56-3.46,3.47v0.49c0,1.91,1.55,3.46,3.46,3.46h9.15h21.28h9.14
		C263.12,38.85,264.68,37.3,264.68,35.39z M255.83,97.85l8.75-8.75l-8.75-8.74l-8.75,8.74L255.83,97.85z M260.52,357.89
		c2.67-23.39,4.71-46.69,6.26-67.73c-1.67,0.29-3.34,0.55-5.03,0.78c-0.95,23.18-2.07,45.25-3.35,65.69
		C259.13,357.02,259.84,357.44,260.52,357.89z M262.53,220.5c0-3.4-0.82-6.72-2.37-9.71c-12.43-1.7-25.04-1.7-37.46,0
		c-1.56,2.99-2.38,6.31-2.38,9.71c0,11.64,9.47,21.1,21.11,21.1C253.06,241.6,262.53,232.14,262.53,220.5z M260.2,189.44
		c-0.05,0.03-0.1,0.05-0.14,0.08l-14.63,8.39v3.67c4.84,0.13,9.67,0.51,14.48,1.12C260.03,197.31,260.13,192.86,260.2,189.44z
		 M224.14,23.43h34C257.31,14.79,250.01,8,241.15,8C232.28,8,224.97,14.79,224.14,23.43z M259.43,367.2
		c-1.96-1.85-4.23-3.38-6.8-4.52c-6.87-3.05-15.52-3.05-22.4,0c-2.58,1.14-4.85,2.67-6.81,4.53c4.35,35.86,10.19,71.25,18.01,98.35
		C249.24,438.46,255.09,403.06,259.43,367.2z M250.58,353.52c1.18-19.29,2.23-39.99,3.13-61.68c-2.75,0.22-5.51,0.38-8.28,0.46
		v60.28C247.17,352.77,248.9,353.09,250.58,353.52z M241.43,83.45l8.75-8.75l-8.75-8.75l-8.75,8.75L241.43,83.45z M241.43,112.26
		l8.75-8.75l-8.75-8.75l-8.76,8.75L241.43,112.26z M241.42,54.64l7.79-7.79h-15.57L241.42,54.64z M233.64,131.36h15.57l-7.78-7.78
		L233.64,131.36z M237.43,352.58V292.3c-2.77-0.08-5.53-0.24-8.28-0.46c0.9,21.69,1.95,42.39,3.13,61.68
		C233.96,353.09,235.69,352.77,237.43,352.58z M237.43,201.58v-3.67l-14.63-8.39c-0.05-0.03-0.09-0.05-0.13-0.08
		c0.07,3.5,0.16,7.94,0.29,13.25C227.76,202.09,232.59,201.71,237.43,201.58z M227.02,97.85l8.75-8.75l-8.75-8.74l-8.75,8.75
		L227.02,97.85z M227.02,69.04l8.75-8.74L224.2,48.73c-3.61,2.22-6.02,6.2-6.02,10.73v0.74L227.02,69.04z M224.2,129.48l11.57-11.56
		l-8.75-8.75l-8.84,8.83v0.75C218.18,123.29,220.6,127.26,224.2,129.48z M222.33,357.9c0.69-0.45,1.4-0.87,2.13-1.27
		c-1.28-20.44-2.4-42.51-3.35-65.68c-1.69-0.24-3.37-0.5-5.04-0.79C217.62,311.2,219.66,334.5,222.33,357.9z M218.18,77.88
		l3.18-3.18l-3.18-3.18V77.88z M218.18,106.69l3.18-3.18l-3.18-3.18V106.69z M214.99,203.93c-0.21-8.34-0.33-14.64-0.4-18.63
		c-1.3-0.6-2.61-1.18-3.93-1.72c0.12,4.66,0.34,11.89,0.68,21.07C212.55,204.39,213.77,204.15,214.99,203.93z M187.94,169.13v-13.99
		h-7.05v13.18C183.25,168.51,185.6,168.79,187.94,169.13z M172.89,167.95v-12.81h-9.93v3.92c0,4.89,3.98,8.87,8.88,8.87
		C172.19,167.93,172.54,167.95,172.89,167.95z"/>
	<linearGradient id="SVGID_21_" gradientUnits="userSpaceOnUse" x1="264.68" y1="35.14" x2="218.18" y2="35.14">
		<stop  offset="0" style="stop-color:#ED1C24"/>
		<stop  offset="0.3699" style="stop-color:#B7161C"/>
		<stop  offset="1" style="stop-color:#530A0D"/>
	</linearGradient>
	<path style="fill:url(#SVGID_21_);" d="M264.68,34.9v0.49c0,1.91-1.56,3.46-3.47,3.46h-9.14h-21.28h-9.15
		c-1.91,0-3.46-1.55-3.46-3.46V34.9c0-1.91,1.55-3.47,3.46-3.47h39.57C263.12,31.43,264.68,32.99,264.68,34.9z"/>
	<linearGradient id="SVGID_22_" gradientUnits="userSpaceOnUse" x1="226.6038" y1="27.6974" x2="253.4285" y2="12.2102">
		<stop  offset="0" style="stop-color:#EDCF24"/>
		<stop  offset="0.1977" style="stop-color:#EECD24"/>
		<stop  offset="0.3139" style="stop-color:#EFC422"/>
		<stop  offset="0.4091" style="stop-color:#F3B61F"/>
		<stop  offset="0.4928" style="stop-color:#F7A21B"/>
		<stop  offset="0.5683" style="stop-color:#FD8817"/>
		<stop  offset="0.5886" style="stop-color:#FF8015"/>
		<stop  offset="0.6698" style="stop-color:#FB7E15"/>
		<stop  offset="0.7486" style="stop-color:#EF7814"/>
		<stop  offset="0.8264" style="stop-color:#DC6E12"/>
		<stop  offset="0.9037" style="stop-color:#C16110"/>
		<stop  offset="0.9799" style="stop-color:#9E4F0D"/>
		<stop  offset="1" style="stop-color:#934A0C"/>
	</linearGradient>
	<path style="fill:url(#SVGID_22_);" d="M258.14,23.43h-34C224.97,14.79,232.28,8,241.15,8C250.01,8,257.31,14.79,258.14,23.43z"/>
</g>
<g>
</g>
<g>
</g>
<g>
</g>
<g>
</g>
<g>
</g>
<g>
</g>
<g>
</g>
<g>
</g>
<g>
</g>
<g>
</g>
<g>
</g>
<g>
</g>
<g>
</g>
<g>
</g>
<g>
</g>
</svg>
