<?xml version="1.0" encoding="iso-8859-1"?>
<!-- Generator: Adobe Illustrator 18.0.0, SVG Export Plug-In . SVG Version: 6.00 Build 0)  -->
<!DOCTYPE svg PUBLIC "-//W3C//DTD SVG 1.1//EN" "http://www.w3.org/Graphics/SVG/1.1/DTD/svg11.dtd">
<svg version="1.1" id="Capa_1" xmlns="http://www.w3.org/2000/svg" xmlns:xlink="http://www.w3.org/1999/xlink" x="0px" y="0px"
	 viewBox="0 0 297 297" style="enable-background:new 0 0 297 297;" xml:space="preserve">
<path d="M13.902,239.165c-5.215,5.215-5.215,13.67,0,18.885l35.037,35.039c2.504,2.504,5.9,3.911,9.442,3.911
	s6.938-1.407,9.442-3.911l83.658-84.231l12.872,13.439v22.418c0,7.375,6.262,13.353,13.637,13.353c1.063,0,2.363-0.137,3.363-0.371
	v19.889c0,7.375,6.126,13.353,13.501,13.353s13.499-5.978,13.499-13.353v-54.066c1,0.42,2.442,0.651,3.877,0.651
	c7.375,0,13.123-5.979,13.123-13.354v-28.816l6-6.163v2.107c0,7.375,6.125,13.354,13.5,13.354s13.5-5.979,13.5-13.354v-30.716
	c27-34.685,30.552-68.173,27.946-91.475C283.023,26.47,270.066,6.723,269.51,5.896c-2.229-3.309-5.745-5.448-9.716-5.832
	c-3.976-0.391-7.869,1.028-10.689,3.85L13.902,239.165z M135.395,154.937l61.958-62.465v17.68c0,7.375,6.124,13.354,13.499,13.354
	c7.377,0,13.501-5.979,13.501-13.354V65.763l30.095-29.74c8.078,22.04,14.807,64.867-29.078,108.754l-50.066,49.908L135.395,154.937
	z M58.381,264.76L42.23,248.608l47.342-47.345c-0.135,0.756-0.215,1.521-0.215,2.293c0,3.522,1.428,6.965,3.914,9.44
	c2.486,2.495,5.927,3.923,9.439,3.923c1.438,0,2.859-0.251,4.213-0.704L58.381,264.76z M115.361,207.777
	c0.453-1.354,0.704-2.778,0.704-4.221c0-3.514-1.428-6.954-3.913-9.439c-2.486-2.487-5.928-3.915-9.441-3.915
	c-0.772,0-1.537,0.081-2.292,0.215l16.593-16.595l16.152,16.151L115.361,207.777z"/>
<g>
</g>
<g>
</g>
<g>
</g>
<g>
</g>
<g>
</g>
<g>
</g>
<g>
</g>
<g>
</g>
<g>
</g>
<g>
</g>
<g>
</g>
<g>
</g>
<g>
</g>
<g>
</g>
<g>
</g>
</svg>
