<svg width="0" height="0" style="display: none;">
  <symbol id="mandala-one" preserveAspectRatio="xMidYMid meet" width="150" height="150" data-bbox="25.311 22.24 153.999 154" xmlns="http://www.w3.org/2000/svg" viewBox="25.311 22.24 153.999 154" role="presentation" aria-hidden="true" fill="currentColor">
    <g>
        <path d="M119.3 114.279c-.482.178-.95.345-1.438.521-.183.494-.347.961-.525 1.443.412 3.451 1.623 5.751 3.398 7.28 1.989 1.714 4.945 2.599 8.589 2.752-.144-3.65-1.035-6.613-2.75-8.6-1.527-1.768-3.823-2.979-7.274-3.396z"></path>
        <path d="M106.248 22.256c.167.996.245 2.095.248 3.355-.003 3.651-.666 8.579-2.135 15.1a171.34 171.34 0 0 0 1.333 5.405 238.11 238.11 0 0 0 1.575 5.68c2.833-1.838 5.933-3.535 9.218-5.063 1.732-.796 3.509-1.54 5.3-2.242-2.688-5.542-5.793-10.744-8.811-14.859-2.432-3.321-4.809-5.885-6.728-7.376z"></path>
        <path d="M129.727 87.885a437.196 437.196 0 0 0 15.978 5.188c1.964-2.882 3.819-6.162 5.463-9.713a95.673 95.673 0 0 0 2.232-5.269c-5.408-2.357-10.963-4.228-16.041-5.192-2.352 4.39-4.903 9.405-7.632 14.986z"></path>
        <path d="M123.434 48.146c-5.471 2.144-10.718 4.759-14.979 7.663 1.445 4.788 3.167 10.111 5.2 16.021 5.593-2.732 10.551-5.265 14.945-7.619-.856-4.555-2.361-9.475-4.385-14.34-.24-.583-.524-1.148-.781-1.725z"></path>
        <path d="M133.246 68.354c.642.049 1.264.06 1.915.14a319.209 319.209 0 0 1 2.704-4.818 275.766 275.766 0 0 1-4.807 2.693c.087.673.139 1.327.188 1.985z"></path>
        <path d="M117.344 82.239c.171.481.342.949.519 1.437l1.46.528c3.441-.419 5.732-1.627 7.26-3.393 1.715-1.988 2.599-4.946 2.746-8.589-3.646.147-6.6 1.039-8.593 2.746-1.765 1.528-2.98 3.824-3.392 7.271z"></path>
        <path d="M125.024 97.733c-.235.51-.468.987-.709 1.505.241.516.469 1.004.705 1.505 2.453 1.911 4.705 2.65 6.804 2.657 2.83.014 5.773-1.494 8.675-4.158-2.903-2.669-5.846-4.169-8.681-4.156-2.101.006-4.352.741-6.794 2.647z"></path>
        <path d="M146.065 99.263c.407.481.825.953 1.221 1.47 1.85-.543 3.607-1.035 5.292-1.495a299.238 299.238 0 0 1-5.268-1.484c-.403.526-.824 1.014-1.245 1.509z"></path>
        <path d="M127.228 46.744c2.231 5.115 4.051 10.383 5.118 15.431 1.99-1.101 3.88-2.17 5.606-3.181a183.814 183.814 0 0 0 4.285-2.602c3.749-5.926 6.888-10.004 9.553-12.573A20.78 20.78 0 0 1 153.999 42a21.162 21.162 0 0 0-2.752-.162c-5.941-.011-15.075 1.789-24.019 4.906z"></path>
        <path d="M53.448 115.124c-.799 1.714-1.529 3.486-2.231 5.277 5.406 2.36 10.963 4.223 16.041 5.19 2.348-4.395 4.901-9.41 7.627-14.995-5.891-2.024-11.194-3.742-15.967-5.185-1.968 2.882-3.827 6.163-5.47 9.713z"></path>
        <path d="M81.14 48.156c-2.358 5.409-4.224 10.962-5.186 16.039 4.394 2.349 9.402 4.901 14.985 7.63 2.025-5.887 3.742-11.194 5.185-15.97-2.881-1.968-6.162-3.823-9.709-5.466-1.714-.798-3.488-1.529-5.275-2.233z"></path>
        <path d="M102.295 121.254l-1.504.704c-1.914 2.452-2.651 4.705-2.659 6.803-.012 2.829 1.496 5.773 4.16 8.675 2.667-2.901 4.171-5.846 4.163-8.679-.005-2.099-.744-4.347-2.654-6.791-.511-.24-.988-.472-1.506-.712z"></path>
        <path d="M69.451 129.989a256.844 256.844 0 0 1-2.695 4.807 277.175 277.175 0 0 1 4.799-2.684c-.087-.668-.137-1.322-.191-1.977-.64-.051-1.26-.061-1.913-.146z"></path>
        <path d="M98.376 22.24c-1.031.793-2.186 1.856-3.428 3.248-2.869 3.205-6.058 7.789-8.999 12.995-1.093 1.92-2.127 3.949-3.119 6.004 5.185 2.047 10.177 4.5 14.492 7.306.57-1.976 1.106-3.891 1.573-5.667.51-1.93.94-3.714 1.333-5.413-1.469-6.528-2.133-11.454-2.139-15.105a19.45 19.45 0 0 1 .287-3.368z"></path>
        <path d="M98.14 69.728c.004 2.102.744 4.355 2.659 6.807.509.235.985.464 1.5.707.507-.233.985-.462 1.486-.698 1.917-2.452 2.656-4.709 2.666-6.816.012-2.833-1.491-5.777-4.158-8.679-2.665 2.902-4.167 5.846-4.153 8.679z"></path>
        <path d="M100.804 54.243c.525.405 1.014.822 1.508 1.242.482-.414.957-.832 1.477-1.234a257.169 257.169 0 0 1-1.494-5.292c-.46 1.685-.951 3.438-1.491 5.284z"></path>
        <path d="M157.721 49.765c-2.174 2.256-5.397 4.826-9.93 7.844-.818.542-1.726 1.12-2.628 1.689-1.783 2.844-3.721 6.17-5.809 9.953 4.532.957 9.237 2.449 13.874 4.368.529.222 1.044.48 1.571.707 3.114-8.964 4.932-18.075 4.919-24.03 0-1.045-.075-1.937-.178-2.743a21.412 21.412 0 0 1-1.819 2.212z"></path>
        <path d="M129.721 110.592a452.298 452.298 0 0 0 7.621 14.95c4.557-.856 9.473-2.361 14.34-4.385.578-.24 1.145-.523 1.724-.775-2.148-5.474-4.766-10.723-7.67-14.986-4.789 1.446-10.108 3.169-16.015 5.196z"></path>
        <path d="M133.19 130.186c-.049.642-.058 1.261-.145 1.914 1.707.932 3.3 1.828 4.829 2.705a275.355 275.355 0 0 1-2.69-4.809c-.674.087-1.33.136-1.994.19z"></path>
        <path d="M52.926 77.338c-.577.24-1.138.521-1.717.771 2.146 5.472 4.762 10.718 7.662 14.977 4.788-1.443 10.11-3.167 16.017-5.201-2.729-5.589-5.26-10.546-7.613-14.939-4.556.863-9.48 2.369-14.349 4.392z"></path>
        <path d="M50.619 42.013a20.436 20.436 0 0 1 2.208 1.815c2.257 2.176 4.828 5.397 7.842 9.927.547.821 1.128 1.741 1.706 2.65 2.838 1.776 6.157 3.713 9.93 5.798.957-4.536 2.448-9.241 4.368-13.881.219-.53.48-1.041.705-1.569-8.961-3.111-18.068-4.927-24.017-4.911a21.28 21.28 0 0 0-2.742.171z"></path>
        <path d="M139.38 129.284a267.23 267.23 0 0 0 3.18 5.612 180.32 180.32 0 0 0 2.603 4.28c5.926 3.748 9.998 6.883 12.564 9.546a20.366 20.366 0 0 1 1.825 2.209c.1-.799.165-1.713.161-2.741.014-5.939-1.794-15.073-4.911-24.021-5.112 2.23-10.38 4.044-15.422 5.115z"></path>
        <path d="M176.076 91.902c-3.21-2.868-7.797-6.065-13.006-9.003a103.598 103.598 0 0 0-6.008-3.123c-2.042 5.186-4.497 10.177-7.304 14.497 1.985.569 3.904 1.102 5.678 1.57 1.927.507 3.701.94 5.401 1.328 6.524-1.464 11.454-2.134 15.106-2.137 1.281 0 2.362.113 3.367.288-.794-1.031-1.852-2.181-3.234-3.42z"></path>
        <path d="M160.827 101.305c-1.696.39-3.473.822-5.401 1.329a303.179 303.179 0 0 0-5.677 1.575c1.84 2.835 3.542 5.939 5.065 9.224a99.734 99.734 0 0 1 2.247 5.299c5.54-2.684 10.741-5.794 14.86-8.811 3.319-2.427 5.886-4.805 7.37-6.724-.989.163-2.085.245-3.34.249-3.655-.005-8.59-.672-15.124-2.141z"></path>
        <path d="M143.945 144.737a124.008 124.008 0 0 1-1.701-2.645c-2.844-1.778-6.17-3.714-9.947-5.804-.963 4.534-2.457 9.232-4.373 13.867-.219.537-.48 1.049-.712 1.582 8.97 3.106 18.088 4.927 24.039 4.911 1.035 0 1.93-.07 2.733-.172a21.088 21.088 0 0 1-2.195-1.812c-2.257-2.178-4.828-5.401-7.844-9.927z"></path>
        <path d="M105.693 152.368c-.51 1.918-.936 3.691-1.326 5.38 1.47 6.537 2.134 11.469 2.143 15.122a20.562 20.562 0 0 1-.286 3.37c1.026-.799 2.177-1.857 3.411-3.24 2.869-3.206 6.065-7.792 9.005-13.001a100.773 100.773 0 0 0 3.121-6.004c-5.185-2.043-10.176-4.495-14.498-7.302a259.445 259.445 0 0 0-1.57 5.675z"></path>
        <path d="M108.463 142.636c2.881 1.964 6.161 3.821 9.713 5.461 1.714.8 3.482 1.531 5.274 2.236 2.362-5.409 4.228-10.962 5.192-16.04-4.392-2.35-9.406-4.901-14.99-7.628a436.592 436.592 0 0 0-5.189 15.971z"></path>
        <path d="M59.461 59.321c-5.93-3.752-10.005-6.888-12.574-9.554a21.295 21.295 0 0 1-1.823-2.212c-.1.803-.17 1.717-.163 2.746-.012 5.939 1.796 15.073 4.911 24.017 5.113-2.223 10.378-4.044 15.429-5.113a261.091 261.091 0 0 0-3.188-5.612c-.9-1.536-1.757-2.934-2.592-4.272z"></path>
        <path d="M83.862 74.974c-1.991-1.714-4.941-2.605-8.585-2.748.149 3.639 1.035 6.598 2.749 8.583 1.528 1.768 3.823 2.983 7.269 3.395.484-.172.949-.342 1.435-.52l.526-1.453c-.42-3.439-1.629-5.735-3.394-7.257z"></path>
        <path d="M52.043 99.242c1.676.456 3.426.948 5.27 1.486.405-.519.819-1.007 1.234-1.497-.408-.487-.828-.961-1.229-1.477a248.366 248.366 0 0 1-5.275 1.488z"></path>
        <path d="M47.553 79.759c-5.541 2.684-10.739 5.793-14.851 8.809-3.316 2.424-5.883 4.801-7.368 6.721.994-.163 2.098-.245 3.35-.246 3.652.001 8.581.666 15.112 2.138 1.689-.392 3.467-.822 5.387-1.331 1.78-.467 3.694-1.006 5.676-1.574-1.84-2.833-3.535-5.934-5.061-9.218a101.762 101.762 0 0 1-2.245-5.299z"></path>
        <path d="M85.3 114.281c-3.45.415-5.746 1.627-7.274 3.395-1.709 1.99-2.6 4.945-2.749 8.589 3.644-.15 6.602-1.036 8.585-2.749 1.77-1.529 2.983-3.827 3.394-7.277-.171-.485-.341-.952-.516-1.44l-1.44-.518z"></path>
        <path d="M72.785 95.092c-2.831-.01-5.769 1.491-8.67 4.155 2.9 2.666 5.843 4.167 8.67 4.153 2.103-.004 4.355-.742 6.806-2.657.237-.506.464-.984.704-1.496-.236-.512-.465-.994-.699-1.494-2.451-1.914-4.708-2.654-6.811-2.661z"></path>
        <path d="M69.434 68.494c.666-.085 1.316-.134 1.975-.188.051-.642.063-1.261.146-1.915a268.218 268.218 0 0 1-4.809-2.698 293.229 293.229 0 0 1 2.688 4.801z"></path>
        <path d="M100.81 144.219a292.857 292.857 0 0 1 1.49 5.277c.455-1.675.944-3.416 1.482-5.252-.526-.405-1.015-.825-1.506-1.242-.485.41-.956.821-1.466 1.217z"></path>
        <path d="M98.901 152.36c-.465-1.781-1-3.698-1.574-5.684-2.834 1.845-5.94 3.546-9.226 5.071a107.072 107.072 0 0 1-5.291 2.247c2.684 5.538 5.793 10.737 8.811 14.856 2.424 3.315 4.798 5.872 6.713 7.363-.163-.992-.246-2.085-.25-3.335.01-3.654.674-8.59 2.148-15.13a176.989 176.989 0 0 0-1.331-5.388z"></path>
        <path d="M76.006 134.275c.856 4.553 2.36 9.476 4.385 14.344.24.577.523 1.137.774 1.714 5.469-2.147 10.713-4.759 14.982-7.665-1.448-4.787-3.171-10.106-5.204-16.011a444.499 444.499 0 0 0-14.937 7.618z"></path>
        <path d="M49.814 124.16c-3.108 8.963-4.925 18.073-4.906 24.022a20.3 20.3 0 0 0 .169 2.728 21.307 21.307 0 0 1 1.807-2.188c2.178-2.256 5.397-4.828 9.924-7.846a134.64 134.64 0 0 1 2.664-1.709c1.772-2.842 3.708-6.158 5.79-9.927-4.538-.958-9.24-2.453-13.876-4.369-.528-.222-1.039-.481-1.572-.711z"></path>
        <path d="M43.787 101.31c-6.523 1.47-11.454 2.133-15.105 2.143a20.473 20.473 0 0 1-3.371-.289c.793 1.029 1.857 2.186 3.245 3.427 3.201 2.867 7.79 6.061 12.993 9 1.921 1.094 3.944 2.127 6.003 3.119 2.044-5.185 4.504-10.177 7.307-14.496a256.205 256.205 0 0 0-5.664-1.573c-1.931-.505-3.71-.939-5.408-1.331z"></path>
        <path d="M66.64 139.496c-1.529.9-2.922 1.753-4.254 2.587-3.756 5.931-6.89 10.006-9.554 12.58a20.419 20.419 0 0 1-2.213 1.821c.8.1 1.711.163 2.736.158 5.937.013 15.07-1.791 24.018-4.911-2.226-5.115-4.045-10.38-5.107-15.424a246.112 246.112 0 0 0-5.626 3.189z"></path>
    </g>
  </symbol>

  <symbol id="mandala-two" preserveAspectRatio="xMidYMid meet" width="150" height="150" data-bbox="21.103 17.843 165.313 165.314" xmlns="http://www.w3.org/2000/svg" viewBox="21.103 17.843 165.313 165.314" role="presentation" aria-hidden="true" fill="currentColor">
    <g>
      <path d="M186.348 78.309c-1.329-2.593-3.486-5.16-6.786-7.681-1.62-1.23-3.525-2.434-5.706-3.593-1.356 4.449-3.371 8.919-5.909 13.242-.391 1.07-.778 2.193-1.162 3.339.896.796 1.755 1.509 2.622 2.238 4.388 2.48 8.391 5.373 11.81 8.562.015-.021.039-.049.047-.074 3.666-5.905 5.155-10.933 5.152-15.071 0-.333-.049-.639-.068-.962z"></path>
      <path d="M173.856 133.968c2.181-1.159 4.083-2.36 5.702-3.593 3.304-2.523 5.465-5.096 6.79-7.691.02-.319.068-.622.068-.952.003-4.138-1.486-9.166-5.152-15.069-.008-.022-.032-.047-.044-.068a59.54 59.54 0 0 1-6.938 5.533c-1.536 1.048-3.152 2.025-4.807 2.964-.889.744-1.77 1.479-2.69 2.296a145.2 145.2 0 0 0 1.148 3.315c2.548 4.326 4.567 8.806 5.923 13.265z"></path>
      <path d="M161.582 82.047c.649-.948 1.29-1.89 1.883-2.857 1.723-5.68 2.893-10.766 3.564-15.275-4.174-1.638-9.092-3.134-14.747-4.458a69.9 69.9 0 0 0-3.613.182c-.793 6.1-2.374 12.139-4.751 17.676 5.978.71 11.99 2.372 17.664 4.732z"></path>
      <path d="M149.899 54.366c1.184.237 2.303.436 3.422.635.191 0 .381-.017.571-.017 4.813 0 9.487.532 13.852 1.534.015-.539.09-1.151.09-1.669-.007-6.661-1.394-11.444-3.598-14.819-3.378-2.202-8.157-3.599-14.825-3.602-.506 0-1.104.074-1.63.093.994 4.355 1.498 9.041 1.5 13.85 0 .189-.015.383-.015.573.194 1.117.397 2.242.633 3.422z"></path>
      <path d="M116.481 47.026c-3.867 3.31-7.305 7.039-10.09 11.014 2.477 3.99 4.32 8.212 5.355 12.598a40.385 40.385 0 0 1 8.061-6.601c.913-.568 1.868-1.083 2.822-1.596-.497-5.677-1.919-11.483-4.117-17.023-.676.535-1.373 1.047-2.031 1.608z"></path>
      <path d="M157.233 87.78c.572-.668 1.087-1.368 1.635-2.056-5.522-2.189-11.337-3.682-16.991-4.189-.526.989-1.059 1.976-1.649 2.918a40.492 40.492 0 0 1-6.597 8.059c4.381 1.038 8.606 2.879 12.594 5.355 3.97-2.782 7.705-6.218 11.008-10.087z"></path>
      <path d="M119.884 89.724c.159.068.32.122.459.23a2.192 2.192 0 0 1 .848 1.47c.022.17-.013.33-.032.498 1.613-.265 3.226-.422 4.829-.418.605 0 1.2.106 1.799.139 3.361-2.475 6.264-5.692 8.69-9.537.145-.235.271-.497.419-.739-4.796.078-9.322.939-13.358 2.683a30.436 30.436 0 0 1-3.654 5.674z"></path>
      <path d="M129.07 104.831c4.371-.494 8.745-2.004 12.939-4.334-4.193-2.33-8.565-3.838-12.939-4.332-1.855 1.225-3.861 2.218-5.977 3.023.232.31.413.661.462 1.067a2.204 2.204 0 0 1-.438 1.564c2.105.805 4.105 1.796 5.953 3.012z"></path>
      <path d="M112.613 76.478c.039.603.142 1.193.142 1.797 0 1.606-.154 3.219-.419 4.831.458-.044.925.014 1.325.246.401.228.685.603.875 1.016a30.567 30.567 0 0 1 5.673-3.649c1.745-4.03 2.6-8.549 2.685-13.346-.242.145-.504.27-.739.416-3.845 2.425-7.064 5.33-9.542 8.689z"></path>
      <path d="M63.404 60.149c.864 5.898 2.512 11.678 4.915 16.838.529-.017 1.062-.071 1.584-.071 4.107-.007 8.142.548 11.953 1.681-1.131-3.813-1.687-7.844-1.68-11.951 0-.527.035-1.063.054-1.592-5.157-2.396-10.934-4.041-16.826-4.905z"></path>
      <path d="M69.906 124.087c-.525 0-1.061-.035-1.596-.054-2.394 5.158-4.035 10.929-4.9 16.817 5.897-.864 11.678-2.512 16.838-4.915-.017-.526-.071-1.061-.071-1.582-.007-4.103.548-8.133 1.674-11.945-3.806 1.13-7.838 1.679-11.945 1.679z"></path>
      <path d="M144.112 140.85c-.864-5.891-2.513-11.674-4.913-16.834-.526.01-1.058.071-1.581.071-4.11 0-8.135-.548-11.951-1.68 1.129 3.809 1.684 7.839 1.677 11.939 0 .533-.038 1.07-.054 1.6 5.158 2.396 10.928 4.044 16.822 4.904z"></path>
      <path d="M137.608 76.916c.533 0 1.065.036 1.601.054 2.396-5.156 4.039-10.929 4.903-16.816-5.897.864-11.676 2.512-16.838 4.91.017.527.071 1.06.071 1.582.007 4.107-.548 8.137-1.68 11.946 3.812-1.128 7.841-1.683 11.943-1.676z"></path>
      <path d="M164.24 160.96c2.202-3.371 3.586-8.148 3.593-14.802 0-.511-.075-1.111-.09-1.638-4.359.996-9.045 1.497-13.852 1.504-.193 0-.392-.018-.593-.021-1.111.199-2.227.397-3.4.635a150.798 150.798 0 0 0-.632 3.419c0 .191.015.381.015.571 0 4.813-.534 9.486-1.535 13.848.536.015 1.148.09 1.664.09 6.679-.004 11.453-1.394 14.83-3.606z"></path>
      <path d="M55.258 59.457c-5.667 1.324-10.592 2.82-14.773 4.462.671 4.505 1.845 9.592 3.568 15.274a72.166 72.166 0 0 0 1.87 2.835c5.677-2.363 11.699-3.979 17.689-4.689-2.39-5.549-3.973-11.596-4.764-17.708a65.719 65.719 0 0 0-3.59-.174z"></path>
      <path d="M43.278 40.034c-2.199 3.376-3.586 8.154-3.593 14.815 0 .511.075 1.109.088 1.637 4.364-1.002 9.052-1.502 13.86-1.506.198 0 .394.017.594.017 1.112-.199 2.225-.394 3.396-.63.239-1.168.433-2.275.633-3.382-.007-.203-.02-.409-.02-.612 0-4.813.532-9.486 1.535-13.848-.539-.02-1.148-.093-1.667-.093-6.667.006-11.448 1.396-14.826 3.602z"></path>
      <path d="M125.083 40.796a70.882 70.882 0 0 0-2.85 1.873c2.36 5.684 3.98 11.706 4.69 17.691 5.547-2.39 11.596-3.975 17.705-4.767.093-1.209.147-2.416.177-3.62-1.322-5.653-2.815-10.569-4.455-14.74-4.502.669-9.589 1.837-15.267 3.563z"></path>
      <path d="M27.954 130.374c1.623 1.233 3.532 2.434 5.706 3.599 1.358-4.446 3.368-8.913 5.906-13.228a215.33 215.33 0 0 0 1.168-3.357c-.903-.8-1.772-1.516-2.639-2.249-4.374-2.48-8.377-5.375-11.793-8.555-.015.021-.039.047-.054.072-3.662 5.906-5.145 10.935-5.142 15.072 0 .335.049.642.068.967 1.329 2.596 3.483 5.159 6.78 7.679z"></path>
      <path d="M33.66 67.035c-2.174 1.165-4.078 2.363-5.696 3.593-3.309 2.53-5.471 5.107-6.797 7.71-.02.31-.064.607-.064.932-.007 4.138 1.484 9.166 5.145 15.071.015.021.039.046.049.068a60.038 60.038 0 0 1 6.938-5.538c1.539-1.048 3.155-2.022 4.805-2.96.888-.749 1.772-1.484 2.694-2.301a126.775 126.775 0 0 0-1.165-3.337c-2.535-4.319-4.548-8.789-5.909-13.238z"></path>
      <path d="M125.932 17.907c-.316-.017-.612-.064-.938-.064-4.139-.004-9.164 1.489-15.071 5.149a.362.362 0 0 0-.074.051 59.488 59.488 0 0 1 5.538 6.938 68.45 68.45 0 0 1 2.952 4.789c.754.892 1.493 1.78 2.31 2.706 1.151-.387 2.274-.771 3.348-1.161 4.316-2.543 8.786-4.551 13.231-5.909-1.158-2.175-2.362-4.081-3.593-5.703-2.526-3.306-5.103-5.468-7.703-6.796z"></path>
      <path d="M82.529 17.849c-.33 0-.633.046-.952.064-2.593 1.328-5.165 3.488-7.686 6.786-1.233 1.621-2.436 3.528-3.596 5.707 4.46 1.361 8.943 3.381 13.27 5.929 1.058.383 2.17.764 3.303 1.144.8-.899 1.515-1.763 2.249-2.632 2.48-4.381 5.373-8.384 8.56-11.803-.024-.013-.051-.035-.075-.051-5.91-3.659-10.931-5.149-15.073-5.144z"></path>
      <path d="M92.421 38.069a72.737 72.737 0 0 0-1.606 3.136c1.051.8 2.096 1.6 3.103 2.46a66.067 66.067 0 0 1 9.844 10.502 65.667 65.667 0 0 1 9.842-10.498c.999-.854 2.049-1.655 3.09-2.452-.139-.296-.245-.612-.39-.903-.369-.742-.761-1.46-1.149-2.184-4.035-4.311-7.844-7.867-11.393-10.695-3.542 2.814-7.322 6.348-11.341 10.634z"></path>
      <path d="M62.714 52.007a64.33 64.33 0 0 0 .177 3.581c6.103.792 12.146 2.374 17.686 4.756.71-5.977 2.365-11.991 4.726-17.668-.935-.639-1.87-1.278-2.832-1.865-5.693-1.729-10.783-2.902-15.299-3.572-1.64 4.179-3.136 9.101-4.458 14.768z"></path>
      <path d="M99.427 75.19c1.223 1.858 2.217 3.87 3.02 5.983.387-.287.835-.48 1.315-.48.482 0 .93.193 1.31.48.807-2.113 1.801-4.122 3.023-5.98-.494-4.373-2.003-8.745-4.333-12.937-2.328 4.192-3.838 8.564-4.335 12.934z"></path>
      <path d="M124.994 183.157c.328 0 .632-.051.951-.068 2.594-1.329 5.167-3.489 7.69-6.789 1.232-1.623 2.436-3.528 3.593-5.703-4.455-1.361-8.935-3.376-13.264-5.922-1.06-.39-2.174-.771-3.31-1.151-.81.913-1.535 1.787-2.274 2.668-2.477 4.367-5.358 8.35-8.534 11.759.025.019.051.043.077.058 5.907 3.661 10.932 5.148 15.071 5.148z"></path>
      <path d="M144.805 149.026a68.726 68.726 0 0 0-.177-3.616c-6.107-.791-12.146-2.373-17.683-4.757-.71 5.984-2.372 11.994-4.729 17.664.942.649 1.88 1.285 2.842 1.877 5.689 1.73 10.777 2.9 15.292 3.571 1.64-4.17 3.133-9.086 4.455-14.739z"></path>
      <path d="M58.104 164.569c.509 0 1.106-.071 1.632-.09-.998-4.355-1.5-9.043-1.5-13.846 0-.207.013-.416.02-.617-.2-1.106-.394-2.211-.626-3.378-1.187-.238-2.313-.436-3.439-.635-.186 0-.374.014-.561.014-4.813-.001-9.49-.533-13.85-1.536-.019.54-.095 1.145-.095 1.666.007 6.675 1.4 11.455 3.607 14.831 3.377 2.2 8.152 3.588 14.812 3.591z"></path>
      <path d="M45.941 118.955c-.656.948-1.294 1.9-1.891 2.867-1.726 5.681-2.893 10.763-3.564 15.266 4.174 1.639 9.093 3.134 14.755 4.453a63.061 63.061 0 0 0 3.609-.178c.791-6.098 2.374-12.139 4.754-17.679-5.981-.709-11.993-2.367-17.663-4.729z"></path>
      <path d="M82.441 160.204a71.298 71.298 0 0 0 2.849-1.877c-2.365-5.675-3.984-11.697-4.694-17.686-5.545 2.387-11.593 3.972-17.705 4.764a65.898 65.898 0 0 0-.177 3.585c1.322 5.67 2.822 10.595 4.46 14.776 4.506-.671 9.59-1.839 15.267-3.562z"></path>
      <path d="M81.592 183.093c.317.015.61.064.937.064 4.142.003 9.163-1.486 15.072-5.148.024-.013.049-.035.075-.049a59.344 59.344 0 0 1-5.542-6.943 69.554 69.554 0 0 1-2.969-4.803 106.96 106.96 0 0 0-2.292-2.693c-1.148.383-2.271.774-3.346 1.163-4.319 2.536-8.786 4.548-13.234 5.909 1.161 2.174 2.363 4.08 3.596 5.699 2.53 3.31 5.103 5.474 7.703 6.801z"></path>
      <path d="M115.081 162.949a68.42 68.42 0 0 0 1.625-3.154c-1.048-.803-2.096-1.603-3.099-2.458a65.75 65.75 0 0 1-9.848-10.505 65.569 65.569 0 0 1-9.841 10.495c-1.003.859-2.049 1.658-3.094 2.451.142.301.245.617.39.907.365.738.759 1.454 1.148 2.174 4.039 4.319 7.845 7.876 11.399 10.701 3.533-2.808 7.317-6.333 11.32-10.611z"></path>
      <path d="M50.288 87.783c3.302 3.87 7.038 7.306 11.006 10.09 3.99-2.477 8.215-4.318 12.599-5.355a40.399 40.399 0 0 1-6.602-8.057c-.572-.916-1.084-1.875-1.6-2.829-5.674.497-11.476 1.913-17.022 4.117.538.678 1.052 1.375 1.619 2.034z"></path>
      <path d="M44.472 87.567c-.296.142-.61.245-.903.39-.739.365-1.454.754-2.177 1.148-4.317 4.04-7.872 7.844-10.697 11.397 2.81 3.532 6.342 7.319 10.626 11.333a69.71 69.71 0 0 0 3.141 1.613c.803-1.048 1.606-2.097 2.462-3.099a65.938 65.938 0 0 1 10.495-9.846 65.756 65.756 0 0 1-10.495-9.839c-.855-1.004-1.655-2.052-2.452-3.097z"></path>
      <path d="M67.291 116.546a40.249 40.249 0 0 1 6.6-8.055c-4.381-1.044-8.606-2.884-12.596-5.357-3.968 2.781-7.703 6.221-11.006 10.09-.571.661-1.09 1.367-1.635 2.051 5.522 2.189 11.334 3.687 16.986 4.186.531-.986 1.064-1.972 1.651-2.915z"></path>
      <path d="M78.451 96.17c-4.374.493-8.748 2.005-12.937 4.331 4.189 2.331 8.563 3.838 12.937 4.335 1.858-1.226 3.868-2.221 5.987-3.024-.288-.385-.482-.835-.482-1.315 0-.475.191-.924.475-1.307-2.112-.804-4.122-1.798-5.98-3.02z"></path>
      <path d="M91.041 47.026c-.668-.571-1.368-1.092-2.054-1.631-2.193 5.518-3.687 11.335-4.191 16.989.991.527 1.978 1.06 2.92 1.646a40.26 40.26 0 0 1 8.057 6.602c1.04-4.38 2.884-8.606 5.361-12.592-2.784-3.974-6.226-7.707-10.093-11.014z"></path>
      <path d="M87.638 111.276c-.409-.181-.784-.455-1.026-.874s-.294-.88-.249-1.324c-1.609.264-3.222.42-4.832.42-.603-.006-1.196-.11-1.795-.143-3.362 2.479-6.268 5.7-8.69 9.542-.146.239-.276.497-.42.739 4.797-.084 9.326-.942 13.358-2.69.998-2 2.209-3.902 3.654-5.67z"></path>
      <path d="M70.626 81.367c.142.242.274.504.42.739 2.422 3.845 5.327 7.067 8.693 9.543.597-.035 1.19-.138 1.793-.138 1.61 0 3.223.153 4.832.415-.042-.458.017-.928.249-1.33.23-.397.607-.68 1.026-.871a30.112 30.112 0 0 1-3.648-5.664c-4.04-1.755-8.568-2.611-13.365-2.694z"></path>
      <path d="M87.315 80.728c2 .998 3.897 2.203 5.662 3.642.193-.416.477-.793.877-1.023.404-.232.868-.29 1.333-.242a29.686 29.686 0 0 1-.42-4.831c0-.604.103-1.194.142-1.797-2.477-3.364-5.699-6.268-9.542-8.693-.238-.149-.497-.274-.738-.419.079 4.804.938 9.326 2.686 13.363z"></path>
      <path d="M108.095 125.812c-1.229-1.861-2.223-3.87-3.026-5.986-.38.284-.835.48-1.312.48-.484 0-.927-.191-1.31-.477-.803 2.113-1.797 4.122-3.02 5.977.494 4.374 2.007 8.745 4.333 12.943 2.328-4.194 3.84-8.564 4.335-12.937z"></path>
      <path d="M120.209 120.275a30.43 30.43 0 0 1-5.67-3.648c-.184.409-.458.786-.878 1.029-.416.242-.877.291-1.322.245.262 1.61.416 3.222.416 4.825 0 .607-.103 1.197-.142 1.801 2.477 3.36 5.696 6.264 9.542 8.688.235.152.497.277.739.419-.078-4.799-.935-9.322-2.685-13.359z"></path>
      <path d="M94.908 124.52c-.039-.597-.142-1.187-.142-1.787 0-1.61.154-3.226.42-4.838-.452.045-.913-.004-1.333-.249-.416-.235-.687-.61-.874-1.016a30.483 30.483 0 0 1-5.667 3.652c-1.745 4.03-2.604 8.553-2.683 13.348.241-.143.5-.269.738-.419 3.842-2.426 7.064-5.325 9.541-8.691z"></path>
      <path d="M157.233 113.22c-3.303-3.87-7.038-7.311-11.008-10.09-3.987 2.474-8.212 4.314-12.596 5.355a40.073 40.073 0 0 1 6.599 8.061c.575.913 1.087 1.868 1.603 2.825 5.671-.497 11.477-1.919 17.019-4.119-.538-.676-1.055-1.373-1.617-2.032z"></path>
      <path d="M136.896 119.636c-.147-.242-.274-.506-.419-.744-2.426-3.843-5.329-7.06-8.694-9.542-.596.035-1.19.139-1.795.143-1.603 0-3.216-.154-4.829-.415.049.444-.003.905-.245 1.324-.242.419-.617.693-1.02.877a30.842 30.842 0 0 1 3.645 5.664c4.035 1.751 8.561 2.609 13.357 2.693z"></path>
      <path d="M91.041 153.967c3.868-3.303 7.306-7.034 10.09-11.003-2.477-3.99-4.318-8.218-5.358-12.596a40.254 40.254 0 0 1-8.057 6.595c-.913.571-1.868 1.086-2.822 1.601.495 5.671 1.912 11.479 4.115 17.019.677-.536 1.373-1.051 2.032-1.616z"></path>
      <path d="M116.481 153.974c.661.57 1.368 1.09 2.051 1.631 2.191-5.521 3.684-11.335 4.193-16.986-.99-.53-1.976-1.063-2.918-1.652a40.188 40.188 0 0 1-8.061-6.597c-1.042 4.38-2.881 8.604-5.355 12.594 2.781 3.969 6.217 7.703 10.09 11.01z"></path>
      <path d="M163.046 113.43c.296-.135.612-.242.903-.387a61.625 61.625 0 0 0 2.177-1.146c4.316-4.039 7.867-7.844 10.697-11.397-2.815-3.536-6.348-7.318-10.634-11.338a71.566 71.566 0 0 0-3.133-1.61c-.8 1.052-1.603 2.097-2.458 3.104a65.783 65.783 0 0 1-10.503 9.841 66.03 66.03 0 0 1 10.503 9.844c.855 1.003 1.652 2.051 2.448 3.089z"></path>
      <path d="M152.266 141.544c5.664-1.322 10.587-2.817 14.763-4.456-.671-4.513-1.841-9.601-3.57-15.288a62.823 62.823 0 0 0-1.868-2.832c-5.677 2.367-11.7 3.987-17.683 4.693 2.387 5.549 3.968 11.594 4.764 17.708 1.204.093 2.397.146 3.594.175z"></path>
      <path d="M114.503 100.5c0 5.934-4.81 10.744-10.744 10.744s-10.744-4.81-10.744-10.744 4.81-10.744 10.744-10.744 10.744 4.81 10.744 10.744z"></path>
    </g>
  </symbol>

  <symbol id="mandala-three" preserveAspectRatio="xMidYMid meet" width="150" height="150" data-bbox="21.567 19.499 161.003 161" xmlns="http://www.w3.org/2000/svg" viewBox="21.567 19.499 161.003 161" role="presentation" aria-hidden="true" fill="currentColor">
    <g>
      <path d="M105.841 53.66a40.024 40.024 0 0 0-1.561 4.046c.035.236.071.468.098.709.249.905.496 1.805.694 2.732a306.14 306.14 0 0 1 4.652-2.265c-.211-.287-.423-.6-.629-.882a188.64 188.64 0 0 0-3.254-4.34z"></path>
      <path d="M55.694 96.25c1.32.588 2.667 1.12 4.061 1.567.179-.024.358-.053.542-.076.965-.27 1.933-.533 2.92-.74a292.355 292.355 0 0 1-2.264-4.656c-.304.218-.634.443-.935.663a201.185 201.185 0 0 0-4.324 3.242z"></path>
      <path d="M69.15 72.917c-1.868.194-3.66.419-5.411.653.016.016.027.039.041.057.854 1.17 1.827 2.265 2.817 3.342.084.037.165.073.249.106 1.041.263 2.063.633 3.093.966.111-1.768.225-3.515.369-5.225-.377.034-.786.059-1.158.101z"></path>
      <path d="M62.647 86.076c1.393-.96 2.806-1.922 4.262-2.888-.686-.618-1.328-1.277-1.979-1.93-.209-.157-.398-.32-.602-.477a39.322 39.322 0 0 0-4.272-.703 210.626 210.626 0 0 0 2.591 5.998z"></path>
      <path d="M63.208 103.029a51.558 51.558 0 0 1-2.987-.756c-.149-.022-.295-.045-.445-.064a38.854 38.854 0 0 0-4.036 1.555 208.146 208.146 0 0 0 5.221 3.887 301.466 301.466 0 0 1 2.247-4.622z"></path>
      <path d="M64.634 119.033c.74-.759 1.559-1.445 2.356-2.159a278.928 278.928 0 0 1-4.359-2.943c-.154.339-.323.697-.474 1.033a200.115 200.115 0 0 0-2.12 4.957c1.461-.146 2.92-.4 4.373-.721.072-.058.151-.115.224-.167z"></path>
      <path d="M79.609 157.813c-.013.035-.008.075-.024.114a.162.162 0 0 1-.014.016 2.074 2.074 0 0 1-1.136 1.083 1.967 1.967 0 0 1-1.475-.009c-.038-.011-.081-.007-.119-.023-.008-.004-.016-.011-.024-.016a2.081 2.081 0 0 1-1.076-1.135c-.892-2.306-1.675-5.071-2.366-8.185-3.006.943-5.826 1.701-8.235 2.075a2.08 2.08 0 0 1-2.372-1.739c-.1-.625.111-1.213.499-1.658a41.62 41.62 0 0 1-6.238.87c.184 6.079 1.681 12.897 4.809 20.53 8.189-1.113 14.844-3.237 20.212-6.129a41.492 41.492 0 0 1-2.41-5.919c-.018.042-.018.087-.031.125z"></path>
      <path d="M69.354 91.258c.041-1.624.108-3.22.168-4.827a268.694 268.694 0 0 0-5.121 3.47 278.236 278.236 0 0 0 2.697 5.552c.74-1.399 1.491-2.788 2.256-4.195z"></path>
      <path d="M66.553 123.035a38.395 38.395 0 0 0-2.751 3.359c-.014.016-.022.032-.035.049 1.74.236 3.524.455 5.378.651.371.039.778.064 1.149.102-.135-1.687-.247-3.41-.355-5.152a47.995 47.995 0 0 1-3.313.96.347.347 0 0 0-.073.031z"></path>
      <path d="M40.871 109.429c-.594.127-1.228.027-1.735-.383a2.075 2.075 0 0 1-.323-2.918c1.54-1.915 3.551-3.973 5.899-6.131-2.323-2.136-4.305-4.173-5.836-6.083a2.08 2.08 0 0 1 .325-2.924 2.052 2.052 0 0 1 1.64-.405c-1.388-1.524-2.67-3.201-3.871-5.008-5.183 3.204-10.339 7.908-15.403 14.441 5.066 6.537 10.225 11.239 15.411 14.443 1.207-1.817 2.497-3.506 3.893-5.032z"></path>
      <path d="M52.089 139.298a2.077 2.077 0 0 1-1.741-2.368c.38-2.422 1.082-5.199 2.033-8.229-3.109-.691-5.869-1.476-8.168-2.365a2.073 2.073 0 0 1-1.182-2.688c.244-.629.77-1.04 1.372-1.214a41.374 41.374 0 0 1-5.912-2.411c-2.9 5.376-5.028 12.035-6.143 20.243 7.631 3.13 14.459 4.623 20.542 4.805.136-2.177.437-4.271.878-6.296-.052.046-.081.107-.136.146a2.057 2.057 0 0 1-1.543.377z"></path>
      <path d="M71.769 140.759a189.763 189.763 0 0 1-.922-7.396c-.065-.636-.114-1.317-.173-1.961-.648-.064-1.328-.11-1.963-.175a194.448 194.448 0 0 1-7.376-.919c-2.388 4.341-3.898 9.211-4.28 14.735 5.516-.387 10.382-1.895 14.714-4.284z"></path>
      <path d="M62.84 50.059a2.08 2.08 0 0 1 2.367-1.745c2.407.375 5.17 1.074 8.184 2.017.691-3.083 1.469-5.821 2.356-8.103.1-.255.252-.492.442-.687.157-.165.352-.287.556-.39.038-.019.065-.057.103-.073.247-.108.515-.167.792-.172a2.16 2.16 0 0 1 .8.14c.255.103.491.253.686.446.114.107.184.251.268.379.065.094.152.169.195.278.027.058.022.129.041.193.003 0 .003.004.003.004a42.399 42.399 0 0 1 2.415-5.926c-5.373-2.894-12.036-5.024-20.244-6.136-3.126 7.631-4.619 14.454-4.804 20.539 2.19.139 4.302.438 6.335.888-.384-.446-.593-1.03-.495-1.652z"></path>
      <path d="M57.619 110.386a196.213 196.213 0 0 1-5.942-4.495c-1.564.943-3.077 1.967-4.492 3.16-2.413 2.047-4.592 4.531-6.547 7.414 4.953 2.398 9.911 3.558 14.817 3.665 1.101-2.753 2.364-5.658 3.719-8.639-.512-.371-1.051-.738-1.555-1.105z"></path>
      <path d="M57.028 54.986c.385 5.514 1.895 10.378 4.286 14.717 2.353-.34 4.828-.647 7.403-.922.632-.068 1.317-.112 1.963-.173.062-.625.108-1.294.173-1.906.274-2.582.58-5.065.924-7.425-4.345-2.391-9.219-3.91-14.749-4.291z"></path>
      <path d="M47.177 90.978c1.41 1.191 2.917 2.209 4.467 3.149 2.329-1.838 4.874-3.718 7.536-5.617-.263-.577-.545-1.171-.797-1.74a189.978 189.978 0 0 1-2.901-6.876c-4.923.11-9.889 1.273-14.852 3.677 1.955 2.878 4.134 5.363 6.547 7.407z"></path>
      <path d="M69.519 113.555c-.057-1.598-.13-3.178-.165-4.79a318.32 318.32 0 0 1-2.264-4.228 262.207 262.207 0 0 0-2.692 5.549 278.418 278.418 0 0 0 5.121 3.469z"></path>
      <path d="M79.346 82.096c5.367 2.884 10.48 6.574 15.251 10.789.203.079.409.164.613.247-.068-.173-.141-.338-.203-.506-3.047-3.44-5.858-7.033-8.26-10.792a69.64 69.64 0 0 1-2.627-4.519c-.987.584-1.976 1.168-2.952 1.762-.608 1.002-1.223 2.003-1.822 3.019z"></path>
      <path d="M85.196 64.918a324.84 324.84 0 0 1 2.944-4.354c-.323-.146-.664-.312-.989-.454a185.283 185.283 0 0 0-5.004-2.135c.149 1.441.398 2.877.71 4.317.111.137.217.283.325.426.707.695 1.349 1.463 2.014 2.2z"></path>
      <path d="M78.999 64.448a39.626 39.626 0 0 0-3.318-2.712l-.041-.026a170.498 170.498 0 0 0-.653 5.431c-.038.347-.062.735-.1 1.087 1.689-.133 3.402-.245 5.14-.357a47.187 47.187 0 0 1-.938-3.22 2.893 2.893 0 0 1-.09-.203z"></path>
      <path d="M82.805 137.768a38.816 38.816 0 0 0-.699 4.274 211.485 211.485 0 0 0 6.04-2.609 330.787 330.787 0 0 1-2.892-4.265c-.645.717-1.336 1.393-2.022 2.07-.145.181-.286.35-.427.53z"></path>
      <path d="M74.073 78.569c1.334-.834 2.676-1.67 4.036-2.497a323.36 323.36 0 0 1 2.529-4.074c-2.082.129-4.126.274-6.124.438a302.083 302.083 0 0 0-.441 6.133z"></path>
      <path d="M99.552 109.409c-.108.133-.222.264-.331.397-.071.217-.114.438-.187.656-1.995 5.838-4.538 11.398-7.65 16.428 1.011.564 2.02 1.133 3.028 1.69 1.149.019 2.301.022 3.456.034-.022-.672-.065-1.345-.065-2.02.011-5.481.689-11.095 1.827-16.674a28.58 28.58 0 0 0-.078-.511z"></path>
      <path d="M75.635 138.325a.66.66 0 0 0 .057-.034c1.171-.853 2.263-1.831 3.345-2.817.016-.033.027-.068.043-.1.271-1.09.642-2.163.989-3.233a361.363 361.363 0 0 1-5.186-.363c.038.374.062.775.103 1.147.193 1.864.418 3.654.649 5.4z"></path>
      <path d="M73.496 107.644c.569 1.03 1.122 2.052 1.697 3.082 1.423-.878 2.849-1.747 4.345-2.532 3.985-2.083 8.241-3.836 12.635-5.304l.469-.377c-.193-.03-.382-.056-.575-.084-5.552 1.125-11.133 1.824-16.582 1.827-.683 0-1.353-.045-2.025-.062.011 1.151.014 2.306.036 3.45z"></path>
      <path d="M97.533 134.978a312.101 312.101 0 0 1-4.196-2.258c-1.632-.037-3.226-.11-4.833-.167a274.923 274.923 0 0 0 3.467 5.121c1.826-.86 3.68-1.76 5.562-2.696z"></path>
      <path d="M90.582 57.111c.363-.512.74-1.056 1.103-1.557a196.944 196.944 0 0 1 4.497-5.946c-.943-1.559-1.971-3.074-3.164-4.487-2.044-2.417-4.533-4.595-7.411-6.548-2.402 4.95-3.562 9.908-3.668 14.823 2.755 1.097 5.658 2.361 8.643 3.715z"></path>
      <path d="M98.313 146.375a39.922 39.922 0 0 0 1.57-4.059c-.011-.084-.024-.161-.033-.237a48.648 48.648 0 0 1-.816-3.2 337.934 337.934 0 0 1-4.614 2.251c.214.298.439.625.653.922a198.654 198.654 0 0 0 3.24 4.323z"></path>
      <path d="M88.514 67.449c1.597-.056 3.18-.129 4.795-.164 1.41-.774 2.819-1.522 4.226-2.265a273.892 273.892 0 0 0-5.552-2.686 268.194 268.194 0 0 0-3.469 5.115z"></path>
      <path d="M99.861 57.702a40.156 40.156 0 0 0-1.55-4.032 204.628 204.628 0 0 0-3.89 5.229 323.39 323.39 0 0 1 4.649 2.254c.195-.922.447-1.822.691-2.727.032-.247.07-.484.1-.724z"></path>
      <path d="M97.839 73.436c0-.686.046-1.365.065-2.047-1.16.011-2.323.018-3.475.041-1.027.565-2.052 1.122-3.08 1.698.878 1.415 1.749 2.846 2.529 4.344 2.093 4.011 3.849 8.29 5.324 12.71.122.15.244.302.366.45.035-.21.068-.423.1-.633-1.13-5.548-1.824-11.123-1.829-16.563z"></path>
      <path d="M73.461 95.834c.675-.02 1.344-.065 2.028-.065 5.468.012 11.068.687 16.642 1.82.187-.028.369-.051.556-.08-.138-.115-.276-.241-.417-.351-.217-.075-.439-.118-.656-.19-5.839-1.994-11.399-4.537-16.428-7.649a291.9 291.9 0 0 0-1.686 3.024c-.026 1.156-.029 2.327-.039 3.491z"></path>
      <path d="M78.137 123.964a399.757 399.757 0 0 1-4.069-2.532c.125 2.087.274 4.131.439 6.139 2.001.165 4.044.308 6.132.434a650.177 650.177 0 0 1-2.502-4.041z"></path>
      <path d="M93.043 154.891c1.19-1.404 2.209-2.91 3.147-4.463-1.832-2.327-3.711-4.867-5.614-7.528-.588.267-1.198.557-1.784.82a187.498 187.498 0 0 1-6.864 2.898c.111 4.916 1.277 9.881 3.687 14.838 2.888-1.958 5.379-4.143 7.428-6.565z"></path>
      <path d="M159.716 122.452c.065.023.133.015.193.042.106.046.182.133.277.195.13.084.274.156.382.267a2.066 2.066 0 0 1 .583 1.485 2.03 2.03 0 0 1-.13.599c-.022.065-.016.133-.041.194-.049.107-.13.184-.198.277-.084.131-.152.274-.263.381a2.161 2.161 0 0 1-.691.445c-2.28.885-5.023 1.663-8.108 2.356.943 3.005 1.705 5.828 2.079 8.24a2.094 2.094 0 0 1-.38 1.549 2.117 2.117 0 0 1-1.361.823 2.073 2.073 0 0 1-1.548-.377c-.06-.045-.095-.113-.152-.168.445 2.028.745 4.133.881 6.316 6.083-.183 12.909-1.675 20.54-4.804-1.111-8.204-3.239-14.862-6.135-20.232a42.08 42.08 0 0 1-5.928 2.412z"></path>
      <path d="M156.942 109.055c-1.415-1.194-2.925-2.213-4.484-3.157-2.312 1.826-4.847 3.702-7.495 5.592.268.594.559 1.202.819 1.788a181.054 181.054 0 0 1 2.9 6.864c4.907-.108 9.862-1.266 14.815-3.668-1.954-2.883-4.139-5.371-6.555-7.419z"></path>
      <path d="M111.558 161.406a2.084 2.084 0 0 1-1.838 2.294 2.086 2.086 0 0 1-1.529-.447c-1.908-1.538-3.966-3.535-6.116-5.877-2.144 2.337-4.191 4.331-6.11 5.872 0 0-.008.014-.016.018a2.038 2.038 0 0 1-.729.377 2.031 2.031 0 0 1-.697.062c-.041-.004-.073.012-.103.008-.049-.003-.089-.037-.138-.043a2.005 2.005 0 0 1-.629-.201 2.022 2.022 0 0 1-.626-.519 2.105 2.105 0 0 1-.379-.728 2.237 2.237 0 0 1-.06-.72s-.014-.057-.008-.084c.006-.057.041-.103.049-.159 0 0 .003-.011.008-.019-1.524 1.389-3.204 2.672-5.015 3.874 3.204 5.174 7.902 10.323 14.424 15.385 6.533-5.064 11.236-10.22 14.438-15.402a41.912 41.912 0 0 1-4.974-3.839c.013.051.045.097.048.148z"></path>
      <path d="M113.564 142.894c-.377.534-.762 1.09-1.136 1.603a192.417 192.417 0 0 1-4.489 5.939c.941 1.547 1.957 3.054 3.144 4.459 2.044 2.413 4.527 4.592 7.409 6.548 2.404-4.959 3.57-9.922 3.673-14.84a199.526 199.526 0 0 1-8.601-3.709z"></path>
      <path d="M140.987 148.432c.325.445.464 1.006.379 1.552a2.09 2.09 0 0 1-.827 1.358c-.442.327-1 .462-1.548.377-2.418-.377-5.197-1.079-8.225-2.029-.697 3.106-1.477 5.865-2.364 8.164a1.972 1.972 0 0 1-.412.634c-.013.015-.016.034-.024.046a2.032 2.032 0 0 1-.637.449c-.014.003-.016.016-.03.018-.035.016-.079.015-.117.026-.217.08-.439.142-.67.148a2.069 2.069 0 0 1-1.488-.579 2.06 2.06 0 0 1-.466-.661c-.011-.03-.008-.064-.022-.098-.027-.069-.03-.15-.054-.226-.632 2.007-1.445 4-2.434 5.987 5.378 2.899 12.039 5.027 20.247 6.14 3.128-7.627 4.622-14.451 4.809-20.528a41.108 41.108 0 0 1-6.213-.861c.028.033.071.049.096.083z"></path>
      <path d="M167.168 85.589c-1.198 1.808-2.48 3.485-3.868 5.003.038-.007.071-.027.106-.034a2.11 2.11 0 0 1 1.529.445c.426.346.705.854.767 1.399a2.083 2.083 0 0 1-.445 1.525c-1.526 1.892-3.505 3.932-5.823 6.064 2.353 2.158 4.351 4.217 5.899 6.137.342.427.507.981.445 1.526a2.066 2.066 0 0 1-.767 1.392 2.064 2.064 0 0 1-1.526.449c-.081-.009-.154-.057-.23-.072 1.396 1.529 2.692 3.227 3.901 5.048 5.189-3.2 10.344-7.909 15.414-14.442-5.066-6.532-10.219-11.236-15.402-14.44z"></path>
      <path d="M44.442 77.583c-.062-.016-.125-.016-.179-.039-.038-.014-.081-.01-.119-.028-.008-.001-.016-.011-.024-.016a2.069 2.069 0 0 1-1.076-1.13 2.096 2.096 0 0 1-.138-.804c.005-.232.065-.455.146-.671.011-.037.008-.081.024-.117.005-.009.013-.016.016-.027.22-.473.61-.87 1.133-1.075 2.312-.893 5.086-1.681 8.214-2.375-.933-2.979-1.683-5.774-2.052-8.17a2.08 2.08 0 0 1 1.738-2.372 2.074 2.074 0 0 1 1.613.449 40.945 40.945 0 0 1-.873-6.25c-6.08.187-12.903 1.683-20.532 4.813 1.117 8.207 3.245 14.868 6.145 20.242a41.642 41.642 0 0 1 5.964-2.43z"></path>
      <path d="M95.152 106.904c-.173.064-.339.137-.504.205-3.429 3.032-7.007 5.825-10.748 8.214a69.449 69.449 0 0 1-4.519 2.627c.586.987 1.171 1.979 1.762 2.951.995.607 1.982 1.214 2.987 1.809 2.89-5.369 6.582-10.483 10.8-15.257.076-.185.149-.364.222-.549z"></path>
      <path d="M104.573 90.647c.119-.146.244-.29.366-.438.071-.213.114-.438.187-.652 1.998-5.842 4.541-11.402 7.653-16.429-1.017-.569-2.033-1.144-3.047-1.698-1.16-.023-2.326-.03-3.494-.041.022.679.068 1.354.068 2.036-.013 5.465-.689 11.067-1.819 16.638.026.196.053.391.086.584z"></path>
      <path d="M128.504 61.716c-.014.011-.03.02-.041.027-1.171.855-2.266 1.827-3.351 2.819-.046.114-.098.228-.144.346-.26.995-.621 1.972-.941 2.962 1.77.108 3.516.226 5.226.366-.038-.359-.062-.747-.098-1.098-.193-1.875-.416-3.67-.651-5.422z"></path>
      <path d="M109.715 128.573c1.014-.557 2.03-1.107 3.044-1.675-.873-1.418-1.74-2.844-2.524-4.34-2.098-4.011-3.849-8.302-5.33-12.726-.108-.136-.22-.27-.325-.403-.032.191-.057.377-.084.568 1.13 5.552 1.827 11.139 1.832 16.588 0 .683-.046 1.351-.068 2.029 1.156-.013 2.311-.015 3.455-.041z"></path>
      <path d="M125.999 76.038c1.374.836 2.724 1.682 4.072 2.528-.13-2.085-.271-4.125-.439-6.125a295.965 295.965 0 0 0-6.126-.439 364.242 364.242 0 0 1 2.493 4.036z"></path>
      <path d="M116.001 139.442c.342.153.694.325 1.033.476 1.686.751 3.323 1.445 4.926 2.104a38.88 38.88 0 0 0-.726-4.383c-.813-.786-1.545-1.673-2.307-2.522a336.683 336.683 0 0 1-2.926 4.325z"></path>
      <path d="M121.29 62.263c.312-1.419.556-2.846.708-4.274a197.112 197.112 0 0 0-5.999 2.59 288.75 288.75 0 0 1 2.903 4.287c.564-.63 1.166-1.21 1.754-1.803.211-.279.423-.526.634-.8z"></path>
      <path d="M108.942 93.148c.187-.073.369-.156.556-.229 3.421-3.025 6.997-5.815 10.732-8.203a72.504 72.504 0 0 1 4.541-2.642 308.66 308.66 0 0 0-1.781-2.981c-1.003-.61-1.995-1.218-3.012-1.82-2.884 5.369-6.576 10.484-10.792 15.251l-.244.624z"></path>
      <path d="M130.683 104.206c-.672.02-1.342.065-2.022.065-5.478-.015-11.09-.691-16.671-1.828-.182.03-.36.057-.539.087.135.107.274.231.409.339.214.072.447.118.661.19 5.842 1.997 11.396 4.537 16.425 7.645.567-1.01 1.141-2.025 1.697-3.042.024-1.15.029-2.303.04-3.456z"></path>
      <path d="M130.642 92.363c-.561-1.019-1.109-2.036-1.681-3.055-1.418.877-2.844 1.743-4.337 2.525-4.034 2.109-8.346 3.872-12.798 5.353-.13.104-.26.214-.39.318.211.034.423.061.634.092 5.549-1.125 11.12-1.823 16.566-1.827.686 0 1.366.045 2.047.065-.011-1.156-.016-2.319-.041-3.471z"></path>
      <path d="M111.125 45.128c-1.196 1.411-2.217 2.922-3.155 4.48 1.827 2.32 3.7 4.854 5.595 7.503.577-.264 1.171-.545 1.738-.8a200.014 200.014 0 0 1 6.877-2.898c-.108-4.909-1.266-9.87-3.665-14.82-2.869 1.948-5.352 4.128-7.39 6.535z"></path>
      <path d="M93.068 37.134a2.083 2.083 0 0 1 2.925-.324c1.895 1.527 3.939 3.513 6.078 5.838 2.136-2.327 4.18-4.306 6.089-5.842.214-.171.463-.295.729-.374.217-.06.445-.068.667-.057.046 0 .087-.016.133-.011a2.104 2.104 0 0 1 1.396.767c.171.217.296.462.374.726.06.22.068.446.057.676 0 0 .016.08.011.123-.008.062-.038.114-.054.176 1.529-1.396 3.223-2.693 5.042-3.898-3.207-5.198-7.916-10.363-14.462-15.435-6.536 5.069-11.239 10.228-14.443 15.414 1.832 1.214 3.53 2.514 5.069 3.92-.115-.58-.01-1.199.389-1.699z"></path>
      <path d="M106.616 65.03c1.393.739 2.789 1.491 4.191 2.255 1.629.041 3.22.108 4.831.169a269.756 269.756 0 0 0-3.47-5.117 289.185 289.185 0 0 0-5.552 2.693z"></path>
      <path d="M105.809 146.379a202.199 202.199 0 0 0 3.92-5.266 281.337 281.337 0 0 1-4.635-2.253 46.001 46.001 0 0 1-.794 3.117c-.011.121-.03.243-.049.361a39.592 39.592 0 0 0 1.558 4.041z"></path>
      <path d="M124.779 117.941c-5.37-2.887-10.483-6.579-15.254-10.8-.19-.073-.371-.146-.553-.22.073.193.154.375.228.567 3.009 3.402 5.782 6.96 8.157 10.677a68.258 68.258 0 0 1 2.64 4.541c.997-.591 1.995-1.182 2.982-1.778.602-.996 1.206-1.984 1.8-2.987z"></path>
      <path d="M115.633 132.551c-1.597.06-3.18.129-4.795.169a300.55 300.55 0 0 1-4.229 2.262c1.876.938 3.727 1.837 5.552 2.696a298.963 298.963 0 0 0 3.472-5.127z"></path>
      <path d="M141.963 85.083a178.202 178.202 0 0 0 2.123-4.97c-1.456.15-2.906.404-4.356.72l-.111.085c-.762.781-1.616 1.494-2.432 2.23 1.469.974 2.917 1.95 4.321 2.924.146-.326.314-.668.455-.989z"></path>
      <path d="M134.619 86.441c.062 1.597.13 3.179.171 4.797.773 1.411 1.515 2.817 2.263 4.228.933-1.877 1.83-3.733 2.692-5.556a279.012 279.012 0 0 0-5.126-3.469z"></path>
      <path d="M134.79 108.738c-.035 1.629-.109 3.219-.171 4.829a247.142 247.142 0 0 0 5.121-3.471 280.399 280.399 0 0 0-2.695-5.549 360.654 360.654 0 0 1-2.255 4.191z"></path>
      <path d="M137.715 76.888a38.578 38.578 0 0 0 2.654-3.256c.014-.016.027-.039.038-.054a176.49 176.49 0 0 0-5.47-.661c-.352-.037-.74-.06-1.098-.099.136 1.696.252 3.424.363 5.17a49.565 49.565 0 0 1 3.058-.899c.151-.067.308-.14.455-.201z"></path>
      <path d="M140.358 126.437c-.008-.016-.016-.027-.027-.043-.854-1.17-1.83-2.262-2.817-3.348-.057-.023-.114-.049-.168-.072-1.057-.264-2.098-.634-3.142-.976-.108 1.757-.228 3.49-.361 5.191.352-.037.74-.06 1.087-.096 1.879-.196 3.674-.419 5.428-.656z"></path>
      <path d="M153.757 63.144c-.374 2.41-1.074 5.166-2.014 8.18 3.082.687 5.817 1.467 8.103 2.352.51.199.93.602 1.149 1.102.217.501.23 1.079.03 1.591a2.08 2.08 0 0 1-1.098 1.147c-.087.039-.184.037-.274.062 2.011.633 4.012 1.456 6.01 2.445 2.9-5.373 5.028-12.036 6.143-20.246-7.628-3.128-14.451-4.622-20.526-4.808a41.192 41.192 0 0 1-.876 6.258 2.043 2.043 0 0 1 1.61-.453 2.081 2.081 0 0 1 1.743 2.37z"></path>
      <path d="M146.568 89.647a202.015 202.015 0 0 1 5.937 4.486c1.548-.939 3.055-1.953 4.462-3.143 2.41-2.043 4.592-4.528 6.544-7.409-4.961-2.406-9.924-3.569-14.847-3.675-1.093 2.742-2.353 5.632-3.7 8.603.525.377 1.089.76 1.604 1.138z"></path>
      <path d="M130.073 121.428a330.67 330.67 0 0 1-4.036 2.499c-.835 1.377-1.683 2.726-2.529 4.072 2.085-.123 4.126-.27 6.129-.438.165-2.001.309-4.043.436-6.133z"></path>
      <path d="M125.709 41.054a2.088 2.088 0 0 1 2.695 1.183c.886 2.291 1.667 5.039 2.358 8.134 2.982-.931 5.782-1.685 8.179-2.056a2.092 2.092 0 0 1 1.548.381c.445.323.743.819.824 1.361a2.126 2.126 0 0 1-.377 1.547c-.032.049-.09.073-.127.116a40.794 40.794 0 0 1 6.338-.885c-.184-6.084-1.678-12.913-4.806-20.547-8.219 1.117-14.89 3.249-20.266 6.155a41.554 41.554 0 0 1 2.429 5.969c.177-.595.584-1.113 1.205-1.358z"></path>
      <path d="M143.177 92.345a247.825 247.825 0 0 1-2.258 4.656c.981.21 1.941.47 2.898.74.201.023.396.052.594.079a38.982 38.982 0 0 0 4.036-1.553 186.772 186.772 0 0 0-5.27-3.922z"></path>
      <path d="M125.142 135.603a39.04 39.04 0 0 0 3.296 2.699c.019.016.043.03.065.045.236-1.758.458-3.555.653-5.428.041-.367.062-.777.1-1.148-1.691.137-3.424.256-5.172.366a55.77 55.77 0 0 1 .93 3.176c.036.095.085.198.128.29z"></path>
      <path d="M144.362 102.215c-.125.016-.249.032-.371.051a52.355 52.355 0 0 1-3.044.775 264.2 264.2 0 0 1 2.245 4.611c.29-.205.599-.417.884-.626a170.627 170.627 0 0 0 4.337-3.254 40.477 40.477 0 0 0-4.051-1.557z"></path>
      <path d="M142.792 130.298c-2.361.348-4.839.652-7.422.928-.613.065-1.279.11-1.903.168-.062.644-.111 1.331-.176 1.963-.271 2.579-.58 5.058-.922 7.418 4.332 2.379 9.192 3.886 14.706 4.272-.382-5.532-1.897-10.402-4.283-14.749z"></path>
      <path d="M137.205 116.828c.672.604 1.296 1.248 1.927 1.88.247.186.461.375.702.561a39.56 39.56 0 0 0 4.275.698 207.956 207.956 0 0 0-2.611-6.048 244.05 244.05 0 0 1-4.293 2.909z"></path>
      <path d="M132.364 59.285c.347 2.356.651 4.835.927 7.416.065.613.111 1.282.171 1.911.629.061 1.296.106 1.914.169 2.594.276 5.088.59 7.46.933 2.386-4.335 3.893-9.197 4.28-14.717-5.533.383-10.407 1.898-14.752 4.288z"></path>
    </g>
  </symbol>

  <symbol id="mandala-four" preserveAspectRatio="xMidYMid meet" width="150" height="150" data-bbox="25 24.9 149.9 150.1" viewBox="25 24.9 149.9 150.1" xmlns="http://www.w3.org/2000/svg" data-type="color" role="presentation" aria-hidden="true" fill="currentColor">
    <g>
      <path d="M117.8 172.6c7.5-1.8 14.6-4.8 21.1-8.7-5-1.7-9.9-3.4-14.4-5.1-2.2 4.5-4.4 9-6.7 13.8z" data-color="1"></path>
      <path d="M127.2 152.7c4.5 1.7 9.4 3.4 14.7 5.2.8.3 1.5.5 2.3.8h.1c.4.1.7.3 1.1.5 1.7-1.3 3.3-2.6 4.9-4.1-5.8-5.3-12.4-8.9-19.4-11.1-1.1 2.9-2.5 5.8-3.7 8.7z" data-color="1"></path>
      <path d="M110 173.2c0-.1 0-.1 0 0 .1-.1.1-.1 0 0 .4-.8.8-1.4 1.1-2.1 2.5-5.1 4.8-9.8 6.8-14.3-3-1.1-6-2.3-8.8-3.4-3.5 6.5-5.5 13.7-5.9 21.6 2.1-.1 4.3-.3 6.4-.6l.4-1.2z" data-color="1"></path>
      <path d="M158.9 144.5c0-.1 0-.1 0 0 0-.1 0-.1 0 0 0-.1 0-.1 0 0-.3-1-.6-1.8-.9-2.7-1.8-5.3-3.5-10.2-5.2-14.5-3 1.3-5.8 2.6-8.6 3.8 2.1 7 5.9 13.6 11.1 19.4 1.4-1.6 2.8-3.2 4.1-4.9-.2-.3-.3-.5-.4-.8l-.1-.3z" data-color="1"></path>
      <path d="M81.8 156.5c2 4.4 4.3 9.1 6.8 14.2.3.7.6 1.3 1 2l.3.9c2.1.3 4.2.5 6.4.6-.4-7.8-2.4-15.1-5.9-21.6-2.6 1.5-5.5 2.7-8.6 3.9z" data-color="1"></path>
      <path d="M55.2 158.8c.1 0 .1 0 0 0 .1 0 .1 0 0 0 .8-.2 1.5-.5 2.2-.7 5.4-1.8 10.3-3.6 14.9-5.3-1.3-3-2.6-5.8-3.8-8.6-7.1 2.1-13.6 5.9-19.4 11.1 1.6 1.4 3.2 2.8 4.9 4.1.7-.3.9-.5 1.2-.6z" data-color="1"></path>
      <path d="M47.1 127.1c-1.7 4.5-3.4 9.4-5.2 14.6-.3.8-.6 1.7-.9 2.5-.1.3-.3.6-.5.9 1.3 1.7 2.7 3.3 4.1 4.9 5.3-5.8 9-12.4 11.1-19.4-2.8-.8-5.6-2.1-8.6-3.5z" data-color="1"></path>
      <path d="M61.1 163.9c6.4 3.9 13.5 6.9 21 8.7-2.3-4.8-4.5-9.4-6.6-13.7-4.6 1.6-9.4 3.4-14.4 5z" data-color="1"></path>
      <path d="M114.7 90.1l-.2.2c-1.2 1.7-2.4 3.4-3.6 5.2 2.1.5 4.3.8 6.3 1.2h.1c6.7-1.1 12-1.9 14-5.2.7-1.2 1.1-2.8 1.1-4.8-2-1.9-3.8-2.9-5.6-2.9-3.2-.2-7.4 2.9-12.1 6.3z" data-color="1"></path>
      <path d="M117.7 57.8c2.2 0 4.3-.2 6.5-.5-1-2.4-2.1-5-3.3-7.8-2.8 1.1-5.4 2.1-7.8 3.1 1.6 2.1 3.1 3.8 4.5 5.1 0 .1 0 .1.1.1z" data-color="1"></path>
      <path d="M164 138.8c3.9-6.4 6.9-13.5 8.7-21.1-4.8 2.3-9.4 4.5-13.8 6.6 1.7 4.6 3.3 9.5 5.1 14.5z" data-color="1"></path>
      <path d="M103.4 82.7c.3 2 .7 4.1 1.2 6.1 1.7-1.1 3.4-2.3 5-3.4l.3-.3s0-.1.1-.1c4-5.5 7.1-9.8 6.2-13.6-.3-1.3-1.2-2.7-2.6-4.2-7.3.1-8.3 4-10.1 15.1-.1.3-.1.4-.1.4z" data-color="1"></path>
      <path d="M150.3 79.1c-2.7-1.2-5.3-2.3-7.7-3.3-.4 2.6-.5 4.9-.5 6.8 1.3 1.3 3 2.8 5.1 4.4 1-2.5 2.1-5.1 3.1-7.9z" data-color="1"></path>
      <path d="M138 66.3c.8-2.4 1.7-4.8 2.8-7-2.3 1.1-4.7 2-7.1 2.8.4 1 .8 2.1 1.3 3.1.9.3 2 .7 3 1.1z" data-color="1"></path>
      <path d="M122.6 70c.7 2.8.4 5.3-.5 7.9 1.6-.6 3.2-.9 4.9-.9 1.5 0 3 .3 4.4.8-.5-2.2-1.2-4.5-2.1-7-2.6-.9-5-1.5-7.1-2.1.1.4.2.8.4 1.3z" data-color="1"></path>
      <path d="M144.7 41.1s-.1 0 0 0c-.1 0-.1 0 0 0-.1 0-.1 0 0 0-.8.2-1.4.5-2.1.7-5.4 1.9-10.4 3.6-15 5.3 1.3 3 2.6 5.8 3.8 8.6 7.1-2.1 13.6-5.9 19.4-11.1-1.6-1.4-3.2-2.8-4.9-4.1-.7.3-.8.5-1.2.6z" data-color="1"></path>
      <path d="M138.8 35.9c-6.4-3.9-13.5-6.9-21.1-8.7 2.3 4.8 4.5 9.4 6.6 13.7 4.7-1.5 9.5-3.2 14.5-5z" data-color="1"></path>
      <path d="M152.8 72.8c1.6-4.5 3.4-9.4 5.2-14.6.3-.8.5-1.6.8-2.4v-.2c.1-.3.3-.6.4-.8-1.3-1.7-2.6-3.3-4.1-4.9-5.3 5.8-9 12.3-11.1 19.3 3 1 5.9 2.2 8.8 3.6z" data-color="1"></path>
      <path d="M172.7 82.2c-1.8-7.5-4.8-14.5-8.7-21-1.7 5-3.4 9.8-5.1 14.4 4.4 2 9.1 4.2 13.8 6.6z" data-color="1"></path>
      <path d="M118.1 43.4c-2-4.2-4.2-8.9-6.6-13.9-.4-.8-.8-1.6-1.2-2.5l-.3-.9c-2.1-.3-4.2-.5-6.3-.6.4 7.8 2.4 15.1 5.9 21.6 2.5-1.4 5.4-2.6 8.5-3.7z" data-color="1"></path>
      <path d="M173.2 89.9c-.1 0-.1 0 0 0-.9-.4-1.8-.8-2.6-1.2-5-2.5-9.6-4.7-13.9-6.6-1.1 3-2.3 6-3.4 8.8 6.5 3.5 13.8 5.5 21.6 5.9-.1-2.2-.3-4.2-.6-6.4-.4-.2-.7-.3-1.1-.5.1 0 0 0 0 0z" data-color="1"></path>
      <path d="M72.7 47.2c-4.6-1.7-9.4-3.4-14.9-5.3-.4-.1-.7-.2-1.1-.4-.4-.1-.8-.3-1.1-.4h-.1c-.3-.1-.6-.3-.9-.4-1.7 1.3-3.3 2.6-4.9 4.1 5.7 5.2 12.3 8.9 19.4 11 1-2.8 2.3-5.7 3.6-8.6z" data-color="1"></path>
      <path d="M40.9 55.4c.1 0 .1 0 0 0 .1 0 .1 0 0 0 0 .1 0 .1 0 0 .3.9.5 1.7.8 2.5 1.8 5.3 3.6 10.2 5.2 14.6 3-1.3 5.8-2.6 8.6-3.8-2.1-7-5.9-13.6-11.1-19.4-1.4 1.6-2.8 3.2-4.1 4.9.5.4.5.7.6 1.2 0-.1 0-.1 0 0z" data-color="1"></path>
      <path d="M35.9 61.1c-3.9 6.4-6.9 13.5-8.7 21 4.8-2.3 9.4-4.5 13.8-6.6-1.7-4.5-3.3-9.4-5.1-14.4z" data-color="1"></path>
      <path d="M43.3 81.9c-4.4 2.1-9.2 4.2-14.4 6.9-.6.3-1.1.5-1.7.8l-.2.1-.9.3c-.3 2.1-.5 4.2-.6 6.4 7.8-.4 15.1-2.4 21.6-5.9-1.4-2.6-2.6-5.6-3.8-8.6z" data-color="1"></path>
      <path d="M26.7 110c.1 0 .1.1 0 0 6.1 3 11.4 5.7 16.5 8 1.1-3 2.3-6 3.4-8.8-6.5-3.5-13.8-5.5-21.6-5.9.1 2.1.3 4.2.6 6.3.4.2.7.2 1.1.4-.2 0-.2 0 0 0z" data-color="1"></path>
      <path d="M82.1 27.3c-7.5 1.8-14.6 4.8-21 8.7 5 1.7 9.9 3.4 14.4 5.1 2.1-4.4 4.3-9.1 6.6-13.8z" data-color="1"></path>
      <path d="M89.9 26.7s0 .1 0 0c0 .1 0 .1 0 0 0 .1 0 .1 0 0-.1.1-.1.1 0 0 0 .1 0 .1 0 0-.4.9-.8 1.6-1.1 2.3-2.5 5.1-4.7 9.7-6.7 14.1 3 1.1 6 2.3 8.8 3.4 3.5-6.5 5.5-13.7 5.9-21.6-2.2.1-4.3.3-6.4.6-.3.6-.4.9-.5 1.2z" data-color="1"></path>
      <path d="M27.1 117.7c1.8 7.5 4.8 14.5 8.7 21.1 1.7-5 3.4-9.8 5.1-14.5-4.4-2-9-4.1-13.8-6.6z" data-color="1"></path>
      <path d="M99.9 131.1c-1.4 2.9-3.4 5.3-6.5 6.7 1.9 1.1 4 2.3 6.5 3.6 2.4-1.2 4.6-2.4 6.5-3.6-3.1-1.4-5.1-3.8-6.5-6.7z" data-color="1"></path>
      <path d="M116.1 128.2c.9-3.7-2.2-8-6.2-13.6 0 0 0-.1-.1-.1-1.7-1.2-3.5-2.5-5.3-3.7-.4 2-.8 4-1.1 6v.5c1.8 10.9 2.8 14.9 10.1 15a9.4 9.4 0 0 0 2.6-4.1z" data-color="1"></path>
      <path d="M105.5 99.9a5.6 5.6 0 1 1-11.2 0 5.6 5.6 0 0 1 11.2 0z" data-color="1"></path>
      <path d="M96.5 117.3c-.3-2.1-.7-4.2-1.2-6.3-1.8 1.1-3.4 2.3-5 3.5-.1.1-.2.2-.4.3-4 5.5-7.1 9.8-6.2 13.5.3 1.3 1.2 2.7 2.6 4.2 7.3-.2 8.3-4.1 10.2-15.2z" data-color="1"></path>
      <path d="M73 116.2c3.4 0 7.5-3 12.2-6.4l.1-.1c1.2-1.7 2.5-3.5 3.7-5.3-1.9-.4-3.8-.7-5.6-1h-.9c-6.7 1.1-12 2-13.9 5.2-.7 1.2-1.1 2.8-1.1 4.8 1.9 1.8 3.7 2.8 5.5 2.8z" data-color="1"></path>
      <path d="M117.4 142.1c-1.3 1.3-2.9 3-4.4 5.1 2.4 1 5.1 2 7.8 3.1 1.2-2.7 2.3-5.3 3.3-7.7-2.1-.3-4.3-.6-6.7-.5z" data-color="1"></path>
      <path d="M82.3 142.1c-2.2 0-4.4.2-6.6.5 1 2.4 2.1 5 3.3 7.7 2.8-1.1 5.4-2.1 7.8-3.1-1.7-2-3.2-3.7-4.5-5.1z" data-color="1"></path>
      <path d="M77.3 129.9c-.7-2.7-.4-5.3.5-7.8-1.6.6-3.2.9-4.8.9-1.5 0-3-.3-4.4-.8.5 2.1 1.2 4.5 2.1 7 2.6.9 5 1.5 7.1 2.1-.2-.5-.4-1-.5-1.4z" data-color="1"></path>
      <path d="M122.1 122.1c.9 2.5 1.2 5.1.5 7.8-.1.5-.3.9-.5 1.4 2.1-.5 4.5-1.2 7.1-2.1.9-2.6 1.5-4.9 2.1-7-1.4.5-2.9.8-4.4.8-1.6-.1-3.2-.4-4.8-.9z" data-color="1"></path>
      <path d="M153.1 109.3c1.1 2.8 2.2 5.7 3.4 8.7 4.4-2 9.1-4.2 14.2-6.8.7-.3 1.4-.7 2-1l.9-.3c.3-2.1.5-4.2.6-6.3-7.2.3-14.5 2.2-21.1 5.7z" data-color="1"></path>
      <path d="M142.2 117.5c0 1.8.1 4.1.5 6.7 2.4-1 5-2.1 7.7-3.3-1.1-2.8-2.1-5.4-3.1-7.8-2.2 1.5-3.9 3.1-5.1 4.4z" data-color="1"></path>
      <path d="M150.7 96.9c-.4 1-.9 2.1-1.3 3.1.4 1 .9 2 1.3 3.1 2.3-1.2 4.6-2.2 7-3.1-2.5-.8-4.8-1.8-7-3.1z" data-color="1"></path>
      <path d="M117.3 103.3h-.2c-2 .3-4.1.7-6.2 1.1 1.1 1.7 2.3 3.4 3.4 5 .1.2.3.3.4.5 4.7 3.4 8.8 6.3 12.1 6.3 1.8 0 3.6-.9 5.6-2.8 0-2.1-.4-3.7-1.1-4.9-2-3.2-7.2-4.1-14-5.2z" data-color="1"></path>
      <path d="M137.2 94.8c-1.4 2.4-3.5 4-5.9 5.2 2.4 1.2 4.4 2.8 5.9 5.2.3.4.5.9.7 1.3 1.2-1.9 2.4-4 3.6-6.5-1.2-2.4-2.4-4.6-3.6-6.5-.3.4-.6.9-.7 1.3z" data-color="1"></path>
      <path d="M134.9 134.8c-.4 1-.8 2-1.3 3.1 2.4.8 4.8 1.7 7.1 2.8-1.1-2.3-2-4.7-2.8-7-1 .3-2 .6-3 1.1z" data-color="1"></path>
      <path d="M96.9 150.5c1.2 2.3 2.2 4.6 3.1 7 .9-2.4 1.9-4.8 3.1-7-1-.4-2.1-.9-3.1-1.3-1.1.4-2.1 1-3.1 1.3z" data-color="1"></path>
      <path d="M82.5 57.7c1.3-1.3 2.8-3 4.4-5.1-2.4-1-5.1-2-7.8-3.1-1.2 2.7-2.3 5.3-3.3 7.7 2.2.3 4.4.5 6.5.5h.2z" data-color="1"></path>
      <path d="M82.5 96.5h.3c2-.3 4.1-.7 6.2-1.1-1.1-1.7-2.3-3.4-3.4-5l-.3-.3s-.1 0-.1-.1c-4.7-3.4-8.8-6.4-12.2-6.4-1.8 0-3.6.9-5.6 2.8 0 2 .4 3.6 1.1 4.8 2 3.4 7.3 4.2 14 5.3z" data-color="1"></path>
      <path d="M65 65c.4-1 .8-2 1.3-3.1-2.4-.8-4.8-1.7-7.1-2.8 1.1 2.3 2 4.7 2.8 7 1-.2 2-.7 3-1.1z" data-color="1"></path>
      <path d="M83.9 71.6c-.9 3.7 2.2 8 6.2 13.6.1.1.1.2.2.2 1.7 1.2 3.4 2.4 5.2 3.6.4-2 .8-4 1.1-5.9v-.6c-1.8-10.9-2.8-15-10-15.1-1.5 1.5-2.4 2.9-2.7 4.2z" data-color="1"></path>
      <path d="M103.1 49.3c-1.2-2.3-2.2-4.6-3.1-7-.9 2.4-1.9 4.8-3.1 7 1 .4 2.1.9 3.1 1.3 1-.5 2-.8 3.1-1.3z" data-color="1"></path>
      <path d="M49.2 96.8c-2.3 1.2-4.6 2.2-7 3.1 2.4.9 4.8 1.9 7 3.1.4-1 .9-2.1 1.3-3.1-.4-1-.7-2-1.3-3.1z" data-color="1"></path>
      <path d="M100 68.8c1.4-2.9 3.4-5.3 6.5-6.7-1.9-1.2-4.1-2.3-6.5-3.6-2.4 1.2-4.6 2.4-6.5 3.6 3.1 1.4 5.1 3.8 6.5 6.7z" data-color="1"></path>
      <path d="M77.9 77.9c-.9-2.6-1.2-5.1-.5-7.9.1-.5.3-.9.5-1.4-2.2.5-4.5 1.2-7.2 2.1-.9 2.6-1.6 5-2.1 7 1.4-.5 3-.7 4.4-.7 1.6 0 3.3.3 4.9.9z" data-color="1"></path>
      <path d="M61.9 133.6c-.8 2.4-1.7 4.8-2.8 7 2.3-1.1 4.7-2 7.1-2.8-.4-1-.9-2.1-1.3-3.1-.9-.4-1.9-.7-3-1.1z" data-color="1"></path>
      <path d="M49.5 79.1c1.1 2.8 2.1 5.4 3.1 7.8 2.1-1.6 3.8-3.1 5.1-4.4 0-1.8-.1-4.1-.5-6.8-2.4 1.1-5 2.2-7.7 3.4z" data-color="1"></path>
      <path d="M49.5 120.8c2.7 1.2 5.3 2.3 7.7 3.3.4-2.6.5-4.9.5-6.7-1.3-1.3-3-2.8-5.1-4.4-.9 2.5-1.9 5-3.1 7.8z" data-color="1"></path>
      <path d="M62.7 105.2c1.5-2.4 3.5-4.1 5.9-5.2-2.4-1.2-4.5-2.8-5.9-5.2-.2-.4-.5-.8-.6-1.3-1.2 1.9-2.4 4.1-3.6 6.5 1.2 2.4 2.4 4.6 3.6 6.5.2-.5.4-1 .6-1.3z" data-color="1"></path>
    </g>
  </symbol>
</svg>
