<?xml version="1.0" encoding="iso-8859-1"?>
<!-- Generator: Adobe Illustrator 19.0.0, SVG Export Plug-In . SVG Version: 6.00 Build 0)  -->
<svg version="1.1" id="Layer_1" xmlns="http://www.w3.org/2000/svg" xmlns:xlink="http://www.w3.org/1999/xlink" x="0px" y="0px"
	 viewBox="0 0 512 512" style="enable-background:new 0 0 512 512;" xml:space="preserve">
<g>
	<g>
		<path d="M469.333,259.925v-91.797C495.723,151.872,512,131.392,512,106.667C512,36.629,383.211,0,256,0S0,36.629,0,106.667
			c0,24.725,16.299,45.205,42.667,61.461v91.797C17.899,268.757,0,292.224,0,320c0,35.285,28.715,64,64,64c35.307,0,64-28.715,64-64
			c0-27.776-17.877-51.243-42.667-60.075v-71.979c42.005,14.805,95.083,23.253,149.333,25.003v66.539
			C192.939,288,160,320.939,151.488,362.667h-2.155C137.557,362.667,128,372.224,128,384s9.557,21.333,21.333,21.333h2.155
			C160,447.061,192.939,480,234.667,488.512v2.155c0,11.776,9.557,21.333,21.333,21.333c11.797,0,21.333-9.557,21.333-21.333v-2.155
			c41.728-8.512,74.688-41.451,83.179-83.179h2.155c11.797,0,21.333-9.557,21.333-21.333s-9.536-21.333-21.333-21.333h-2.155
			c-8.491-41.728-41.451-74.667-83.179-83.179v-66.539c54.272-1.749,107.349-10.197,149.333-25.003v71.979
			C401.899,268.757,384,292.224,384,320c0,35.285,28.715,64,64,64c35.307,0,64-28.715,64-64
			C512,292.224,494.123,268.757,469.333,259.925z M316.309,363.413c-9.963,1.813-17.643,10.112-17.643,20.587
			c0,10.475,7.68,18.773,17.643,20.587c-6.4,18.667-21.056,33.323-39.723,39.723c-1.792-9.963-10.112-17.643-20.587-17.643
			c-10.475,0-18.773,7.68-20.587,17.643c-18.667-6.4-33.301-21.056-39.701-39.723c9.941-1.813,17.621-10.112,17.621-20.587
			c0-10.475-7.68-18.773-17.621-20.587c6.4-18.667,21.035-33.323,39.701-39.723c1.813,9.963,10.112,17.643,20.587,17.643
			c10.496,0,18.795-7.68,20.587-17.643C295.253,330.091,309.909,344.747,316.309,363.413z M256,170.667
			c-128.235,0-213.333-38.528-213.333-64s85.099-64,213.333-64c128.256,0,213.333,38.528,213.333,64S384.256,170.667,256,170.667z"
			/>
	</g>
</g>
<g>
</g>
<g>
</g>
<g>
</g>
<g>
</g>
<g>
</g>
<g>
</g>
<g>
</g>
<g>
</g>
<g>
</g>
<g>
</g>
<g>
</g>
<g>
</g>
<g>
</g>
<g>
</g>
<g>
</g>
</svg>
