<?xml version="1.0" encoding="iso-8859-1"?>
<!-- Generator: Adobe Illustrator 19.0.0, SVG Export Plug-In . SVG Version: 6.00 Build 0)  -->
<svg version="1.1" id="Layer_1" xmlns="http://www.w3.org/2000/svg" xmlns:xlink="http://www.w3.org/1999/xlink" x="0px" y="0px"
	 viewBox="0 0 512 512" style="enable-background:new 0 0 512 512;" xml:space="preserve">
<g>
	<g>
		<path d="M424.498,0.031c-9.485-0.558-17.183,6.472-17.854,15.622l-3.013,47.425c-7.698,92.73-64.052,174.189-147.631,214.249
			c-83.58-40.06-139.932-121.408-147.631-213.915l-3.013-47.76c-0.671-9.15-8.481-16.18-17.854-15.622
			c-9.149,0.67-16.181,8.592-15.622,17.854l3.124,47.983c7.587,91.95,57.802,173.966,133.794,223.176
			c-41.175,18.189-69.966,59.365-69.966,107.125c0,26.223,8.815,50.438,23.434,70.077l76.884-76.996v-75.099
			c5.356-1.116,11.159-1.674,16.85-1.674c5.691,0,11.382,0.558,16.738,1.674v75.099l76.996,76.996
			c14.617-19.64,23.433-43.854,23.433-70.077c0-47.76-28.791-88.936-69.966-107.125c75.992-49.21,126.206-131.228,133.794-223.511
			l3.124-47.648C440.678,8.623,433.647,0.701,424.498,0.031z"/>
	</g>
</g>
<g>
	<g>
		<path d="M185.957,489.874c15.324,11.484,33.389,19.274,53.193,22.126v-75.427L185.957,489.874z"/>
	</g>
</g>
<g>
	<g>
		<path d="M272.738,436.573V512c19.804-2.852,37.98-10.642,53.305-22.126L272.738,436.573z"/>
	</g>
</g>
<g>
</g>
<g>
</g>
<g>
</g>
<g>
</g>
<g>
</g>
<g>
</g>
<g>
</g>
<g>
</g>
<g>
</g>
<g>
</g>
<g>
</g>
<g>
</g>
<g>
</g>
<g>
</g>
<g>
</g>
</svg>
