<?xml version="1.0" encoding="iso-8859-1"?>
<!-- Generator: Adobe Illustrator 19.0.0, SVG Export Plug-In . SVG Version: 6.00 Build 0)  -->
<svg version="1.1" id="Layer_1" xmlns="http://www.w3.org/2000/svg" xmlns:xlink="http://www.w3.org/1999/xlink" x="0px" y="0px"
	 viewBox="0 0 512 512" style="enable-background:new 0 0 512 512;" xml:space="preserve">
<circle style="fill:#F6306D;" cx="255.996" cy="432.117" r="72.046"/>
<circle style="fill:#B62F78;" cx="255.996" cy="432.117" r="48.031"/>
<g>
	<circle style="fill:#FBB004;" cx="255.996" cy="432.117" r="49.259"/>
	<polyline style="fill:#FBB004;" points="290.482,466.596 254.953,431.875 221.515,466.596 	"/>
</g>
<path d="M255.998,295.861c-8.918,0-16.174,7.256-16.174,16.176c0,8.918,7.256,16.174,16.174,16.174
	c8.919,0,16.175-7.256,16.175-16.174C272.173,303.117,264.917,295.861,255.998,295.861z"/>
<circle style="fill:#A645CB;" cx="255.996" cy="312.031" r="24.015"/>
<path d="M320.04,287.855c-4.505,0-8.17,3.665-8.17,8.17c0,4.506,3.665,8.17,8.17,8.17c4.505,0,8.17-3.665,8.17-8.17
	C328.208,291.521,324.544,287.855,320.04,287.855z"/>
<g>
	<circle style="fill:#F6306D;" cx="320.038" cy="296.026" r="16.01"/>
	<circle style="fill:#F6306D;" cx="191.955" cy="296.026" r="16.01"/>
</g>
<rect x="311.403" y="336.745" style="fill:#FE702D;" width="15.681" height="14.636"/>
<path d="M326.4,273.042c4.303-3.137,8.434-6.576,12.36-10.32c23.957-22.856,37.151-53.673,37.151-86.774H360.23
	c0,28.772-11.469,55.56-32.295,75.428c-19.583,18.683-44.944,28.806-71.892,28.805c-0.003,0-0.005,0-0.008,0
	c-0.013,0-0.024-0.001-0.037-0.001c-0.004,0-0.008,0-0.014,0c-1.672-0.001-3.353-0.04-5.035-0.119
	c-26.87-1.265-51.915-13.146-70.52-33.454c-17.772-19.398-27.867-44.383-28.618-70.66l-15.686,0.001
	c0.756,30.21,12.315,58.954,32.743,81.253c5.352,5.843,11.172,11.079,17.375,15.672c-10.4,2.568-18.136,11.972-18.136,23.154
	c0,10.312,6.579,19.114,15.759,22.435v8.874h15.681v-8.704c9.441-3.178,16.261-12.108,16.261-22.606
	c0-2.693-0.455-5.279-1.282-7.696c5.166,1.956,10.472,3.548,15.887,4.751c-3.937,5.3-6.271,11.86-6.271,18.955
	c0,14.292,9.46,26.413,22.447,30.437V352.8c-39.629,4.673-70.478,38.449-70.478,79.314c0,44.05,35.837,79.886,79.886,79.886
	s79.886-35.837,79.886-79.886c0-41.937-32.488-76.404-73.614-79.617v-9.228c14.572-2.922,25.584-15.814,25.584-31.232
	c0-7.066-2.316-13.6-6.223-18.888c5.367-1.16,10.628-2.692,15.756-4.575c-0.774,2.347-1.199,4.85-1.199,7.453
	c0,10.107,6.322,18.76,15.216,22.227v9.083h15.681v-8.522c9.722-3.013,16.805-12.088,16.805-22.788
	C343.889,285.077,336.472,275.834,326.4,273.042z M191.957,304.195c-4.505,0-8.17-3.665-8.17-8.17c0-4.505,3.665-8.17,8.17-8.17
	s8.17,3.665,8.17,8.17C200.127,300.53,196.462,304.195,191.957,304.195z M320.204,432.113c0,35.404-28.803,64.205-64.205,64.205
	s-64.205-28.803-64.205-64.205s28.803-64.205,64.205-64.205S320.204,396.71,320.204,432.113z M255.998,328.21
	c-8.918,0-16.174-7.256-16.174-16.174c0-8.915,7.25-16.168,16.163-16.174c0.01,0,0.021,0,0.03,0
	c8.91,0.01,16.157,7.261,16.157,16.174C272.173,320.955,264.917,328.21,255.998,328.21z M320.04,304.195
	c-4.505,0-8.17-3.665-8.17-8.17c0-4.505,3.665-8.17,8.17-8.17c4.505,0,8.17,3.665,8.17,8.17
	C328.208,300.53,324.544,304.195,320.04,304.195z"/>
<rect x="183.864" y="336.745" style="fill:#FE702D;" width="15.681" height="14.636"/>
<path d="M255.998,375.011c-31.486,0-57.103,25.615-57.103,57.103c0,31.486,25.617,57.103,57.103,57.103s57.103-25.617,57.103-57.103
	C313.101,400.626,287.485,375.011,255.998,375.011z M262.271,449.989l16.855,16.471c-4.963,3.353-10.687,5.658-16.855,6.599V449.989
	z M246.59,472.444c-5.057-1.179-9.761-3.279-13.922-6.126l13.922-14.456V472.444z M214.576,432.113
	c0-19.603,13.693-36.057,32.013-40.331v37.475l-24.974,25.931C217.173,448.589,214.576,440.648,214.576,432.113z M290.237,455.395
	l-27.967-27.331v-36.897c19.874,3.032,35.15,20.239,35.15,40.947C297.42,440.738,294.767,448.755,290.237,455.395z"/>
<g>
	<path style="fill:#FBB516;" d="M151.767,151.85h-15.681v-16.036h15.681V151.85z M151.767,119.778h-15.681v-16.036h15.681V119.778z
		 M151.767,87.705h-15.681V71.669h15.681V87.705z M152.178,56.685l-15.545-2.057c0.804-6.076,2.489-11.983,5.007-17.561
		l14.292,6.454C154.044,47.7,152.781,52.129,152.178,56.685z M163.326,31.981l-11.841-10.279c4.012-4.622,8.661-8.628,13.818-11.906
		l8.413,13.233C169.84,25.493,166.344,28.505,163.326,31.981z M186.215,17.439l-4.243-15.096C187.503,0.788,193.245,0,199.04,0
		h0.896v15.681h-0.896C194.68,15.681,190.365,16.273,186.215,17.439z"/>
	<rect x="136.089" y="167.944" style="fill:#FBB516;" width="15.681" height="8.006"/>
	<path style="fill:#FBB516;" d="M375.91,151.85h-15.681v-16.036h15.681V151.85z M375.91,119.778h-15.681v-16.036h15.681V119.778z
		 M375.91,87.705h-15.681V71.669h15.681V87.705z M359.818,56.685c-0.603-4.555-1.866-8.984-3.753-13.164l14.292-6.454
		c2.518,5.576,4.204,11.485,5.006,17.561L359.818,56.685z M348.67,31.981c-3.018-3.476-6.513-6.488-10.39-8.953l8.413-13.233
		c5.157,3.278,9.806,7.284,13.818,11.906L348.67,31.981z M325.782,17.439c-4.15-1.167-8.466-1.758-12.826-1.758h-0.896V0h0.896
		c5.795,0,11.537,0.788,17.068,2.343L325.782,17.439z"/>
	<rect x="360.233" y="167.944" style="fill:#FBB516;" width="15.681" height="8.006"/>
</g>
<rect x="216.271" y="0.124" style="fill:#A645CB;" width="79.451" height="15.681"/>
<g>
</g>
<g>
</g>
<g>
</g>
<g>
</g>
<g>
</g>
<g>
</g>
<g>
</g>
<g>
</g>
<g>
</g>
<g>
</g>
<g>
</g>
<g>
</g>
<g>
</g>
<g>
</g>
<g>
</g>
</svg>
