<svg width="0" height="0" style="display: none;">
  <symbol xmlns="http://www.w3.org/2000/svg" viewBox="0 0 22 22" id="rss">
    <circle cx="6.18" cy="17.82" r="2.18"/><path d="M4 4.44v2.83c7.03 0 12.73 5.7 12.73 12.73h2.83c0-8.59-6.97-15.56-15.56-15.56zm0 5.66v2.83c3.9 0 7.07 3.17 7.07 7.07h2.83c0-5.47-4.43-9.9-9.9-9.9z"/>
  </symbol>
  <symbol xmlns="http://www.w3.org/2000/svg" viewBox="0 0 32 32" id="facebook-box">
      <path
          d="M6.667 4h18.667c1.467 0 2.667 1.2 2.667 2.667v18.667c0 1.467-1.2 2.667-2.667 2.667H6.667A2.675 2.675 0 0 1 4 25.334V6.667C4 5.2 5.2 4 6.667 4zM24 6.667h-3.333A4.672 4.672 0 0 0 16 11.334v3.333h-2.667v4H16V28h4v-9.333h4v-4h-4V12c0-.733.6-1.333 1.333-1.333H24v-4z">
      </path>
  </symbol>
  <symbol xmlns="http://www.w3.org/2000/svg" viewBox="0 0 32 32" id="facebook">
      <path
          d="M22.667 2.667V8H20c-.92 0-1.333 1.08-1.333 2v3.333h4v5.333h-4v10.667h-5.333V18.666h-4v-5.333h4V8a5.332 5.332 0 0 1 5.333-5.333h4z">
      </path>
  </symbol>
  <symbol xmlns="http://www.w3.org/2000/svg" viewBox="0 0 32 32" id="linkedin">
      <path
          d="M25.333 4c1.473 0 2.667 1.194 2.667 2.667v0 18.667c0 1.473-1.194 2.667-2.667 2.667v0h-18.667c-1.473 0-2.667-1.194-2.667-2.667v0-18.667c0-1.473 1.194-2.667 2.667-2.667v0h18.667zM24.667 24.667v-7.067c0-2.401-1.946-4.347-4.347-4.347v0c-1.133 0-2.453 0.693-3.093 1.733v-1.48h-3.72v11.16h3.72v-6.573c0-1.027 0.827-1.867 1.853-1.867 1.031 0 1.867 0.836 1.867 1.867v0 6.573h3.72zM9.173 11.413c1.237 0 2.24-1.003 2.24-2.24v0c0-1.24-1-2.253-2.24-2.253-1.244 0-2.253 1.009-2.253 2.253v0c0 1.24 1.013 2.24 2.253 2.24zM11.027 24.667v-11.16h-3.693v11.16h3.693z">
      </path>
  </symbol>
  <symbol xmlns="http://www.w3.org/2000/svg" viewBox="0 0 32 32" id="twitter-box">
      <path
          d="M6.667 4h18.667c1.467 0 2.667 1.2 2.667 2.667v18.667c0 1.467-1.2 2.667-2.667 2.667H6.667A2.675 2.675 0 0 1 4 25.334V6.667C4 5.2 5.2 4 6.667 4zm16.946 8.44c.64-.533 1.387-1.173 1.72-1.88-.547.28-1.2.453-1.92.547.667-.48 1.213-1.107 1.493-1.96-.693.373-1.4.693-2.28.853-2.067-2.493-7.013-.467-6.133 3.267-3.48-.213-5.6-1.787-7.36-3.72-1 1.627-.133 4.093 1.053 4.773-.613-.04-1.08-.227-1.52-.44.053 2.053 1.187 3.04 2.773 3.573a4.47 4.47 0 0 1-1.52.04c.493 1.427 1.52 2.32 3.28 2.507-1.2 1.013-3.413 1.72-5.2 1.44 1.533.973 3.28 1.747 5.707 1.64 5.88-.267 9.813-4.48 9.907-10.64z">
      </path>
  </symbol>
  <symbol xmlns="http://www.w3.org/2000/svg" viewBox="0 0 32 32" id="twitter">
      <path
          d="M29.947 8a11.423 11.423 0 0 1-3.28.92 5.738 5.738 0 0 0 2.507-3.173 11.52 11.52 0 0 1-3.627 1.4C24.494 6 23.014 5.334 21.334 5.334c-3.133 0-5.693 2.56-5.693 5.72 0 .453.053.893.147 1.307A16.261 16.261 0 0 1 4.001 6.388a5.663 5.663 0 0 0-.773 2.867c0 1.987 1 3.747 2.547 4.747-.947 0-1.827-.267-2.6-.667v.04a5.724 5.724 0 0 0 4.587 5.613 5.644 5.644 0 0 1-2.574.093c.72 2.253 2.813 3.933 5.333 3.973-1.947 1.547-4.413 2.453-7.107 2.453-.453 0-.907-.027-1.36-.08A16.19 16.19 0 0 0 10.827 28c10.507 0 16.28-8.72 16.28-16.28 0-.253 0-.493-.013-.747A11.42 11.42 0 0 0 29.947 8z">
      </path>
  </symbol>
</svg>
